<svg xmlns="http://www.w3.org/2000/svg" width="1920" height="410" viewBox="0 0 1920 410" fill="none"><path d="M1861.93 245.22C1866.03 245.22 1866.03 250.213 1861.93 250.213C1857.83 249.381 1858.86 245.22 1861.93 245.22ZM40.7346 320.952C48.9382 320.952 42.7856 313.462 36.6328 317.623C35.6074 320.12 36.6328 320.952 40.7346 320.952ZM76.6254 303.476C77.6508 303.476 78.6763 303.476 79.7017 304.308C89.9562 306.804 81.7526 299.314 74.5745 296.818C72.5236 295.986 63.2945 300.979 70.4727 303.476C71.4981 303.476 72.5236 304.308 74.5745 304.308C74.5745 303.476 75.5999 303.476 76.6254 303.476ZM760.6 299.314C759.575 298.482 757.524 297.65 754.447 297.65C751.371 297.65 748.295 304.308 756.498 301.811C758.549 305.14 764.702 301.811 760.6 299.314ZM14.073 307.637C14.073 312.63 17.1493 314.294 22.2766 307.637C26.3784 301.811 14.073 302.643 14.073 307.637ZM-44.3776 176.146C-44.3776 172.817 -49.5049 172.817 -49.5049 176.146C-49.5049 178.642 -44.3776 179.474 -44.3776 176.146ZM-48.4794 201.112C-51.5558 201.112 -55.6576 205.273 -46.4285 206.106C-41.3013 206.106 -40.2758 204.441 -44.3776 201.944C-45.4031 200.28 -47.454 200.28 -48.4794 201.112ZM-34.1231 307.637C-37.1995 307.637 -38.2249 310.133 -36.174 312.63C-27.9704 324.281 -23.8687 307.637 -34.1231 307.637ZM-10.5378 107.903C-15.6651 112.064 -7.46146 118.722 -7.46146 110.4C-7.46146 107.903 -8.48692 106.239 -10.5378 107.903ZM-17.716 158.669C-17.716 155.34 -22.8432 155.34 -22.8432 158.669C-22.8432 161.166 -17.716 161.166 -17.716 158.669ZM-4.38512 178.642C-7.46146 178.642 -7.46146 182.803 -4.38512 182.803C-1.30877 182.803 -1.30877 178.642 -4.38512 178.642ZM-20.7923 267.69C-19.7669 267.69 -18.7414 266.858 -18.7414 266.026C-14.6396 268.522 -12.5887 261.032 -18.7414 263.529C-20.7923 260.2 -25.9195 267.69 -20.7923 267.69ZM-27.9705 237.73C-32.0722 236.066 -36.174 235.233 -40.2758 233.569C-42.3267 232.737 -42.3267 235.233 -41.3013 235.233C-37.1995 236.898 -33.0977 237.73 -28.9959 238.562C-27.9705 240.227 -25.9195 240.227 -23.8687 240.227C-22.8432 240.227 -22.8432 241.059 -22.8432 240.227C-17.716 238.562 -17.716 230.24 -23.8687 233.569C-25.9195 235.233 -26.945 236.066 -27.9705 237.73ZM300.173 102.078C300.173 98.7489 298.122 97.0844 297.097 99.5811C291.97 103.742 300.173 110.4 300.173 102.078ZM-9.51236 276.844C-6.43601 276.844 -6.43601 271.851 -9.51236 271.851C-13.6142 271.851 -13.6142 276.844 -9.51236 276.844ZM480.652 113.729C480.652 117.058 485.78 116.226 485.78 113.729C485.78 110.4 480.652 110.4 480.652 113.729ZM581.146 117.89C581.146 115.393 576.019 114.561 576.019 117.89C576.019 121.219 581.146 120.387 581.146 117.89ZM239.672 97.9166C243.774 92.0911 238.646 86.2655 234.545 95.42C232.494 99.5811 232.494 101.246 233.519 102.078C231.468 100.413 226.341 104.574 229.417 104.574C242.748 102.91 225.315 114.561 238.646 114.561C240.697 114.561 240.697 113.729 240.697 112.897C239.672 111.232 235.57 103.742 234.545 102.078C234.545 102.91 236.595 101.246 239.672 97.9166ZM-4.38512 256.039C8.94572 260.2 3.81847 255.207 -4.38512 250.213C-15.6651 242.723 -15.6651 251.878 -4.38512 256.039ZM1946.02 224.414C1941.92 223.582 1937.82 224.414 1935.76 226.911C1929.61 236.066 1909.1 227.743 1915.26 239.394C1920.38 252.71 1902.95 235.233 1889.62 238.562C1884.49 240.227 1868.09 241.891 1851.68 243.556C1850.65 244.388 1848.6 245.22 1847.58 243.556C1842.45 244.388 1837.32 244.388 1832.19 244.388C1834.25 246.052 1822.97 245.22 1822.97 246.052C1821.94 247.717 1826.04 251.046 1827.07 252.71C1829.12 257.703 1819.89 248.549 1817.84 244.388C1810.66 244.388 1797.33 244.388 1794.25 251.046C1792.2 256.039 1785.02 258.536 1779.9 257.703C1777.85 260.2 1775.79 262.697 1774.77 264.361C1769.64 269.354 1767.59 260.2 1769.64 258.536C1771.69 256.871 1773.74 256.039 1775.79 255.207C1770.67 251.046 1775.79 251.046 1767.59 248.549C1756.31 251.878 1751.18 249.381 1758.36 246.884C1751.18 245.22 1740.93 244.388 1728.62 243.556C1730.67 249.381 1725.55 247.717 1721.45 242.723C1716.32 242.723 1711.19 241.891 1705.04 241.891C1705.04 248.549 1689.66 248.549 1700.94 241.891C1696.84 241.891 1693.76 241.891 1689.66 241.059C1689.66 241.891 1691.71 242.723 1690.68 246.884C1690.68 248.549 1688.63 248.549 1688.63 246.884C1688.63 243.556 1687.61 242.723 1683.5 243.556C1680.43 244.388 1680.43 241.891 1681.45 241.059C1678.38 241.059 1674.28 241.059 1671.2 241.059C1668.12 245.22 1663 242.723 1666.07 241.059C1665.05 241.059 1663 241.059 1661.97 241.059C1659.92 244.388 1659.92 244.388 1656.84 241.059C1654.79 241.059 1653.77 241.059 1651.72 241.059C1651.72 242.723 1655.82 246.052 1653.77 246.884C1650.69 248.549 1643.51 242.723 1640.44 240.227C1498.92 237.73 1281.53 243.556 1178.98 248.549C1177.96 249.381 1176.93 249.381 1174.88 248.549C1165.65 249.381 1158.47 249.381 1151.3 250.213C1153.35 253.542 1131.81 256.871 1129.76 251.878C1128.74 251.878 1127.71 251.878 1126.69 251.878C1131.81 261.864 1106.18 259.368 1115.41 254.374C1112.33 255.207 1109.25 256.039 1105.15 256.039C1101.05 259.368 1108.23 261.032 1112.33 262.697C1114.38 264.361 1121.56 263.529 1120.53 266.858C1120.53 268.522 1117.46 270.187 1115.41 269.354C1114.38 268.522 1115.41 266.026 1114.38 266.026C1113.35 265.193 1111.3 266.858 1110.28 267.69L1104.13 276.844C1102.07 276.844 1100.02 271.019 1095.92 272.683C1093.87 274.348 1099 278.509 1097.97 279.341C1094.9 281.838 1084.64 271.851 1082.59 271.851C1066.18 271.851 1057.98 262.697 1070.29 265.193C1073.36 266.026 1081.57 270.187 1082.59 267.69C1083.62 266.026 1078.49 262.697 1079.51 261.864C1082.59 259.368 1091.82 261.032 1090.79 258.536C1090.79 257.703 1088.74 257.703 1087.72 257.703C1078.49 259.368 1068.23 260.2 1057.98 261.864C1059.01 264.361 1059.01 266.026 1057.98 266.026C1050.8 267.69 1050.8 268.522 1051.83 261.864C1044.65 262.697 1038.5 263.529 1031.32 264.361C1033.37 270.187 1028.24 269.354 1026.19 265.193C997.479 267.69 988.25 267.69 971.843 270.187C973.893 271.851 970.817 273.516 965.69 271.019C957.486 272.683 952.359 274.348 945.181 276.844C948.257 277.677 955.435 277.677 956.461 275.18C959.537 270.187 967.741 280.173 964.664 282.67C961.588 285.167 955.435 281.838 952.359 280.173C945.181 275.18 944.155 283.502 941.079 277.677C939.028 278.509 935.952 278.509 933.901 279.341C919.545 294.321 914.417 287.663 913.392 281.838C912.366 281.838 911.341 281.838 910.316 281.838C912.366 281.838 911.341 284.334 911.341 285.999C918.519 287.663 908.265 295.153 910.316 300.147C911.341 301.811 909.29 302.643 904.163 300.147C887.756 291.824 895.959 297.65 886.73 297.65C884.679 297.65 884.679 295.986 886.73 295.986C889.807 295.986 891.858 295.153 890.832 293.489C887.756 295.153 884.679 297.65 883.654 293.489C882.628 291.824 880.578 290.16 881.603 288.496C883.654 286.831 884.679 294.321 888.781 291.824C889.807 290.992 889.807 290.992 890.832 290.992C890.832 289.328 892.883 288.496 893.908 290.16C896.985 289.328 905.188 291.824 906.214 292.657C906.214 290.992 907.239 289.328 908.265 288.496C907.239 286.831 908.265 284.334 910.316 284.334C909.29 284.334 907.239 284.334 905.188 284.334C904.163 285.999 902.112 285.999 900.061 284.334C895.959 284.334 892.883 285.167 888.781 285.167C888.781 286.831 885.705 288.496 883.654 285.167C882.628 285.167 882.628 285.167 881.603 285.167C880.578 285.999 879.552 285.999 879.552 285.167C876.476 285.167 874.425 285.167 872.374 285.999C874.425 286.831 874.425 288.496 874.425 290.16C878.527 289.328 878.527 291.824 876.476 295.153C868.272 309.301 874.425 301.811 875.45 310.133C875.45 311.798 873.399 311.798 873.399 310.133C873.399 306.804 871.349 305.972 867.247 307.637C864.17 309.301 863.145 305.14 865.196 304.308C873.399 302.643 870.323 292.657 868.272 293.489C867.247 293.489 866.221 294.321 865.196 294.321C863.145 295.986 862.119 295.986 863.145 294.321C862.119 294.321 862.12 294.321 861.094 293.489C859.043 294.321 856.992 295.153 854.941 295.153C859.043 295.986 856.992 300.979 852.89 300.979C851.865 300.979 852.89 297.65 850.84 297.65C849.814 297.65 847.763 298.482 846.738 300.147L842.636 310.133C840.585 310.133 837.509 304.308 834.432 307.637C832.381 309.301 839.56 312.63 837.509 314.294C834.432 316.791 823.152 309.301 821.102 309.301C805.72 311.798 794.44 304.308 806.745 305.14C810.847 305.14 819.051 308.469 820.076 305.972C821.102 304.308 814.949 301.811 814.949 300.147C814.949 299.314 815.974 299.314 817 298.482C802.643 298.482 785.211 295.986 771.88 294.321C771.88 297.65 769.829 299.314 767.778 294.321H766.753C771.88 297.65 763.676 301.811 762.651 294.321C753.422 293.489 748.295 294.321 751.371 297.65C753.422 301.811 753.422 301.811 748.295 300.147C744.193 297.65 724.709 295.986 704.2 295.153C631.393 292.657 650.877 281.006 570.892 288.496C542.179 290.992 504.238 291.824 486.805 290.992C457.067 289.328 403.744 297.65 387.336 305.14C393.489 310.133 385.286 312.63 377.082 310.133C371.955 309.301 370.929 310.133 368.878 312.63C367.853 313.462 364.777 310.133 362.726 309.301H361.7C360.675 310.133 359.649 314.294 359.649 315.127C363.751 316.791 362.726 325.113 356.573 327.61C358.624 327.61 360.675 328.442 359.649 330.939C358.624 332.603 356.573 335.932 359.649 336.764C361.7 336.764 362.726 331.771 364.777 331.771C365.802 331.771 366.827 338.429 368.878 338.429C372.98 337.597 377.082 340.926 375.031 342.59C372.98 344.254 369.904 340.093 366.827 342.59C366.827 342.59 364.777 342.59 363.751 342.59C351.446 332.603 353.497 327.61 356.573 326.778C355.548 326.778 355.548 325.946 355.548 324.281C346.318 335.1 337.089 315.959 344.268 317.623C346.318 318.456 347.344 319.288 348.369 319.288C352.471 320.952 352.471 317.623 351.446 316.791C345.293 312.63 345.293 314.294 342.217 313.462C340.166 312.63 338.115 310.966 336.064 311.798C332.988 313.462 334.013 317.623 334.013 320.12C334.013 320.12 334.013 320.12 334.013 320.952C336.064 321.784 337.089 323.449 335.039 324.281C337.089 332.603 323.759 327.61 330.937 325.113C330.937 324.281 330.937 323.449 330.937 322.617C328.886 320.952 314.53 320.952 314.53 320.952C313.504 319.288 319.657 315.127 315.555 313.462C313.504 312.63 311.453 316.791 309.402 317.623C308.377 320.12 307.351 323.449 306.326 326.778C307.351 326.778 308.377 326.778 309.402 326.778C316.58 325.946 316.58 327.61 313.504 328.442C311.453 328.442 307.351 328.442 306.326 329.274C305.301 331.771 309.402 334.268 311.453 335.932C311.453 336.764 310.428 337.597 310.428 336.764C309.402 335.1 307.351 334.268 306.326 332.603C305.301 336.764 305.301 335.1 304.275 338.429C307.351 337.597 309.402 338.429 310.428 340.926C312.479 348.416 305.301 335.1 304.275 345.919C304.275 351.744 301.199 351.744 302.224 348.416C302.224 346.751 303.25 345.087 303.25 343.422C294.021 367.557 280.69 369.221 273.512 348.416C272.486 350.08 269.41 350.912 269.41 350.912C268.384 350.912 271.461 346.751 272.486 346.751C271.461 342.59 270.435 336.764 269.41 330.939C264.283 330.939 259.155 330.939 257.104 331.771C244.799 340.926 231.468 337.597 241.723 333.436C244.799 331.771 254.028 331.771 253.003 328.442C253.003 326.778 245.824 326.778 245.824 325.946C245.824 324.281 246.85 322.617 248.901 321.784C247.875 320.952 249.926 317.623 251.977 318.456C251.977 317.623 251.977 317.623 250.952 316.791C249.926 315.959 246.85 318.456 244.799 318.456C247.875 324.281 243.774 332.603 239.672 321.784C234.545 323.449 235.57 320.12 238.646 319.288C238.646 317.623 238.646 316.791 238.646 315.959C237.621 315.127 235.57 314.294 236.595 311.798C229.417 320.952 229.417 323.449 225.315 324.281C224.29 324.281 223.265 326.778 222.239 325.946C220.188 325.113 230.443 319.288 228.392 316.791C227.366 315.127 224.29 316.791 222.239 317.623C216.086 322.617 207.883 315.959 209.934 312.63C210.959 310.966 217.112 315.127 220.188 313.462C213.01 311.798 206.857 311.798 201.73 313.462C203.781 320.952 197.628 321.784 196.603 315.959C194.552 317.623 191.476 320.12 190.45 322.617C191.476 322.617 191.476 323.449 189.425 324.281C186.348 329.274 184.298 336.764 183.272 345.087C187.374 344.254 190.45 345.087 183.272 347.583C182.247 354.241 182.247 360.899 183.272 369.221C186.348 370.053 186.348 373.382 183.272 372.55C185.323 397.517 187.374 410 179.17 410C142.254 410 181.221 353.409 109.44 303.476C104.312 303.476 98.1598 300.979 98.1598 296.818C88.9308 292.657 80.7272 289.328 71.4981 289.328C66.3709 289.328 63.2945 286.831 65.3454 284.334C67.3963 281.838 65.3454 281.006 62.2691 281.838C61.2436 281.838 60.2182 282.67 59.1927 282.67C61.2436 284.334 64.32 285.999 66.3709 287.663C67.3963 288.496 67.3963 290.992 66.3709 290.16C62.2691 287.663 58.1673 285.167 55.0909 282.67C57.1418 284.334 59.1927 289.328 59.1927 290.992C61.2436 297.65 48.9382 290.992 53.04 289.328C41.7601 291.824 38.6837 291.824 39.7092 299.314C42.7856 300.979 42.7856 304.308 39.7092 302.643C40.7346 312.63 36.6328 312.63 35.6074 305.972C35.6074 302.643 37.6583 295.986 34.582 294.321C30.4802 292.657 22.2766 299.314 17.1493 300.979C16.1239 301.811 12.0221 299.314 15.0984 298.482C17.1493 297.65 19.2002 295.986 21.2511 295.153C21.2511 293.489 22.2766 293.489 24.3275 293.489C31.5056 289.328 39.7092 284.334 44.8364 285.167C38.6837 281.838 31.5056 275.18 26.3784 266.026C22.2766 259.368 17.1493 255.207 14.073 256.039C10.9966 258.536 8.94572 256.039 7.92027 251.046C6.89482 251.046 6.89482 250.213 5.86938 250.213C4.84393 249.381 3.81847 248.549 5.86938 248.549C5.86938 246.884 4.84393 236.066 5.86938 236.066C4.84393 233.569 0.742134 231.904 -3.35966 231.904C-14.6396 231.904 -15.6651 225.247 -10.5378 223.582C-10.5378 221.086 -5.41056 222.75 -3.35966 224.414C-1.30876 224.414 0.742126 222.75 0.742126 220.253C-2.33422 218.589 -5.41056 216.924 -8.48691 215.26C-11.5633 215.26 -14.6396 216.092 -16.6905 216.092C-16.6905 218.589 -16.6905 221.918 -16.6905 221.918C-23.8687 222.75 -24.8941 223.582 -21.8177 216.924C-26.945 216.924 -13.6142 209.434 -10.5378 206.106C-7.46146 203.609 -6.43602 201.112 -7.46146 199.448C-7.46146 199.448 -7.46146 198.616 -8.48691 198.616C-15.6651 194.454 -15.6651 186.132 -7.46146 188.629C-4.38512 189.461 -0.283318 188.629 3.81848 186.132C2.79303 184.468 0.742126 183.636 -2.33422 186.964C-4.38512 189.461 -10.5378 186.964 -5.41057 184.468C-4.38512 183.636 -2.33422 183.636 -0.283325 182.803C2.79302 181.971 4.84393 180.307 5.86938 178.642C0.742126 179.474 1.76758 172.817 5.86938 174.481L4.84393 173.649C0.742126 171.152 0.742126 166.159 4.84393 166.991C8.94572 167.823 8.94572 171.984 12.0221 173.649C12.0221 171.984 14.073 171.984 16.1239 171.984C13.0475 170.32 6.89482 166.991 4.84393 163.662C2.79302 161.166 4.84393 157.837 9.97117 161.166C13.0475 162.83 14.073 161.166 14.073 158.669C14.073 157.837 14.073 157.004 15.0984 157.004C16.1239 154.508 19.2002 154.508 18.1748 157.837C22.2766 158.669 28.4293 161.166 31.5056 157.004C32.5311 154.508 32.5311 153.676 30.4801 152.843C30.4801 154.508 29.4547 155.34 27.4038 155.34C24.3275 154.508 23.302 149.514 27.4038 148.682C28.4293 145.353 32.5311 140.36 37.6583 137.031C36.6329 137.031 34.582 137.031 34.582 137.031C32.5311 134.534 43.811 130.373 46.8873 128.709C45.8619 128.709 45.8619 128.709 44.8364 127.877C36.6329 122.883 26.3784 136.199 26.3784 131.206C24.3275 131.206 20.2257 131.206 21.2511 130.373C20.2257 129.541 20.2257 128.709 20.2257 127.877C22.2766 126.212 27.4038 122.051 27.4038 124.548C28.4293 124.548 28.4293 123.716 29.4547 123.716C30.4802 122.883 31.5056 122.051 33.5565 121.219V120.387C31.5056 119.554 31.5056 119.554 33.5565 117.89C33.5565 116.226 32.5311 114.561 33.5565 112.897C34.5819 106.239 42.7856 112.897 41.7601 114.561C41.7601 116.226 40.7346 117.89 39.7092 119.554C42.7856 119.554 47.9128 118.722 53.04 118.722C59.1927 112.897 61.2436 114.561 59.1927 118.722C62.2691 118.722 65.3454 118.722 67.3963 118.722C68.4218 117.058 71.4981 117.89 71.4981 118.722C76.6254 118.722 77.6508 119.554 78.6763 120.387L79.7017 119.554C80.7272 118.722 79.7017 117.058 80.7271 117.058C81.7526 117.058 81.7526 118.722 80.7271 121.219C82.778 120.387 85.8544 120.387 88.9308 121.219C90.9816 120.387 92.0071 120.387 94.058 120.387C95.0835 120.387 97.1343 120.387 97.1343 121.219C98.1598 122.051 98.1598 122.051 98.1598 122.883C99.1852 122.883 99.1852 123.716 100.211 123.716C104.312 119.554 101.236 119.554 103.287 116.226C100.211 112.064 103.287 110.4 106.363 112.897C112.516 107.903 118.669 104.574 129.949 102.91C130.974 101.246 134.051 101.246 134.051 102.91C139.178 102.91 144.305 102.91 145.33 107.071C145.33 106.239 146.356 104.574 147.381 103.742C139.178 96.2522 152.509 94.5878 151.483 102.91C153.534 104.574 151.483 107.071 148.407 108.736C149.432 108.736 151.483 108.736 153.534 107.903C155.585 107.071 158.661 106.239 160.712 106.239C162.763 107.071 161.738 108.736 159.687 109.568C158.661 111.232 157.636 112.064 157.636 113.729C159.687 112.064 161.738 111.232 163.789 112.897C169.941 110.4 176.094 109.568 177.119 107.903H178.145C178.145 107.071 178.145 105.407 178.145 103.742C177.119 102.91 175.068 95.42 175.068 94.5878C175.068 94.5878 175.068 94.5878 174.043 94.5878H173.018C167.89 94.5878 162.763 97.9166 164.814 93.7555H163.789C162.763 93.7555 160.712 93.7555 160.712 92.9233C160.712 92.0911 161.738 92.0911 161.738 92.0911C162.763 92.0911 164.814 91.2589 165.839 91.2589C166.865 89.5944 168.916 88.7622 170.967 88.7622C171.992 79.6078 182.247 82.9367 176.094 92.0911C177.119 93.7555 192.501 108.736 191.476 110.4C193.527 109.568 194.552 109.568 195.577 111.232C195.577 108.736 199.679 112.064 198.654 113.729C197.628 115.393 195.577 113.729 195.577 112.064C196.603 117.89 194.552 121.219 205.832 122.051C206.857 121.219 208.908 120.387 208.908 118.722C209.934 114.561 215.061 112.064 216.086 115.393C217.112 117.89 214.036 120.387 213.01 122.883C214.036 122.883 216.086 122.883 217.112 122.883C216.086 112.064 224.29 108.736 224.29 115.393C224.29 118.722 226.341 117.89 229.417 116.226C230.443 115.393 234.545 115.393 234.545 116.226C234.545 117.058 232.494 117.89 230.443 118.722C228.392 119.554 227.366 120.387 226.341 122.051H227.366C234.545 122.051 241.723 122.051 249.926 122.883C250.952 121.219 250.952 120.387 251.977 119.554C244.799 114.561 248.901 114.561 254.028 117.89C257.104 116.226 259.155 118.722 259.155 123.716C260.181 123.716 275.563 125.38 276.588 125.38C281.715 126.212 285.817 127.044 294.021 126.212C297.097 122.883 289.919 116.226 296.071 115.393C296.071 114.561 296.072 114.561 297.097 113.729C298.122 112.064 295.046 108.736 297.097 107.903C298.122 107.903 299.148 109.568 300.173 112.064C300.173 110.4 303.25 108.736 305.301 112.064C307.351 114.561 308.377 112.897 310.428 111.232C311.453 110.4 313.504 107.903 315.555 108.736C320.682 102.91 331.962 102.078 336.064 106.239C340.166 104.574 341.191 107.903 337.089 108.736C336.064 109.568 335.039 110.4 334.013 111.232C336.064 111.232 337.089 112.064 339.14 112.064C341.191 112.064 345.293 112.064 345.293 112.897C345.293 114.561 341.191 113.729 338.115 116.226C337.089 117.058 336.064 117.89 335.039 118.722C332.988 119.554 331.962 118.722 334.013 117.89C339.14 115.393 336.064 113.729 332.988 112.064C332.988 112.064 332.988 112.064 331.962 112.064C328.886 113.729 325.809 115.393 324.784 117.89C326.835 118.722 326.835 119.554 327.86 121.219C343.242 120.387 336.064 129.541 351.446 121.219C350.42 120.387 349.395 118.722 349.395 117.89C348.369 117.89 348.369 117.058 348.369 116.226V115.393C350.42 112.064 353.497 112.897 350.42 116.226C351.446 117.058 352.471 119.554 352.471 120.387H353.497C357.598 114.561 357.598 112.064 348.369 108.736C341.191 106.239 343.242 96.2522 353.497 102.91C356.573 104.574 359.649 109.568 363.751 112.897C364.777 112.897 365.802 113.729 365.802 114.561C367.853 115.393 368.878 116.226 370.929 117.058C371.955 117.058 372.98 117.058 374.006 117.058C370.929 112.897 374.006 113.729 377.082 117.058C379.133 117.058 381.184 117.058 384.26 116.226C387.336 113.729 386.311 112.897 390.413 109.568C388.362 108.736 386.311 106.239 387.336 104.574C388.362 102.91 392.464 106.239 392.464 107.903C399.642 104.574 404.769 109.568 400.667 114.561C400.667 115.393 401.693 115.393 401.693 116.226C402.718 116.226 402.718 116.226 403.744 116.226C411.947 103.742 421.176 107.071 418.1 116.226C418.1 115.393 419.125 114.561 420.151 114.561C423.227 114.561 420.151 118.722 418.1 118.722V117.89C418.1 118.722 418.1 119.554 418.1 120.387C420.151 120.387 422.202 120.387 424.253 121.219C425.278 119.554 427.329 117.89 429.38 121.219C431.431 121.219 430.405 121.219 434.507 122.051C435.533 121.219 437.583 120.387 438.609 120.387C432.456 118.722 432.456 115.393 433.482 112.897C433.482 110.4 432.456 108.736 427.329 111.232C424.253 112.064 427.329 106.239 430.405 107.903C431.431 108.736 433.482 110.4 434.507 111.232C438.609 105.407 447.838 99.5811 431.431 97.0844C425.278 96.2522 440.66 89.5944 441.685 95.42C443.736 102.91 444.762 111.232 444.762 119.554C444.762 121.219 442.711 122.051 439.634 121.219C439.634 122.051 439.634 122.051 439.634 122.883C447.838 122.883 451.94 122.883 459.118 123.716C460.143 122.883 463.22 122.883 464.245 123.716C515.518 125.38 515.518 131.206 515.518 124.548C515.518 121.219 516.543 120.387 519.619 123.716C521.67 126.212 532.95 127.877 544.23 127.877C581.146 127.877 589.35 138.696 589.35 127.044C589.35 112.064 597.554 138.696 611.91 133.702C616.012 132.87 636.521 134.534 659.081 137.863C703.175 145.353 701.124 144.521 731.887 142.024C732.913 141.192 733.938 141.192 734.964 142.024C765.727 139.528 745.218 147.85 790.338 147.85C796.491 147.85 801.618 147.85 804.694 147.85C805.72 146.186 807.771 147.018 807.771 147.85C830.331 149.514 824.178 155.34 861.094 154.508C881.603 153.676 894.934 155.34 909.29 157.004C909.29 154.508 906.214 155.34 903.137 156.172C901.087 156.172 900.061 156.172 902.112 154.508C904.163 153.676 905.188 152.843 907.239 152.011C909.29 151.179 911.341 147.85 913.392 149.514C914.417 150.347 911.341 152.843 911.341 156.172C911.341 157.004 911.341 157.004 911.341 157.837C914.417 157.837 916.468 158.669 919.545 158.669C918.519 156.172 918.519 151.179 919.545 150.347C921.596 149.514 926.723 157.837 925.697 157.837C925.697 157.837 924.672 158.669 923.646 159.501C924.672 159.501 925.697 159.501 926.723 160.333C927.748 157.004 930.825 157.837 929.799 161.166C936.977 161.998 944.155 162.83 952.359 163.662C950.308 162.83 948.257 161.166 950.308 160.333C953.384 157.837 962.613 162.83 961.588 164.494C961.588 164.494 971.843 165.327 977.995 166.159C980.046 164.494 982.097 165.327 982.097 166.159C989.275 166.991 995.428 166.991 1000.56 167.823C1000.56 166.991 1001.58 166.159 1002.61 167.823C1011.83 168.656 1019.01 169.488 1024.14 170.32C1025.17 169.488 1027.22 170.32 1028.24 171.152C1047.73 175.313 1128.74 175.313 1148.22 175.313C1148.22 174.481 1148.22 174.481 1147.19 174.481C1146.17 173.649 1144.12 172.817 1144.12 171.984C1144.12 171.152 1149.25 171.984 1150.27 172.817C1150.27 173.649 1151.3 174.481 1150.27 176.146C1182.06 175.313 1199.49 172.817 1211.8 178.642C1225.13 184.468 1450.73 188.629 1454.83 182.803C1456.88 180.307 1470.21 181.139 1490.72 185.3C1517.38 190.293 1536.87 191.126 1593.26 188.629C1578.91 183.636 1605.57 184.468 1596.34 188.629C1603.52 188.629 1611.72 187.797 1619.93 187.797L1618.9 186.964C1613.77 184.468 1613.77 180.307 1617.88 180.307C1621.98 180.307 1623 186.132 1628.13 186.132C1629.16 186.132 1630.18 186.964 1631.21 187.797C1636.33 187.797 1641.46 186.964 1646.59 186.964C1644.54 184.468 1636.33 185.3 1636.33 183.636C1636.33 181.971 1639.41 182.803 1641.46 181.971C1645.56 180.307 1644.54 176.146 1639.41 177.81C1638.38 177.81 1637.36 179.474 1636.33 179.474C1633.26 177.81 1637.36 169.488 1643.51 173.649C1644.54 174.481 1646.59 175.313 1648.64 176.146C1651.72 176.978 1653.77 185.3 1651.72 187.797C1652.74 187.797 1653.77 187.797 1655.82 187.797C1655.82 186.964 1656.84 186.132 1656.84 185.3C1658.89 179.474 1663 181.971 1659.92 186.964C1665.05 186.964 1669.15 186.132 1674.28 186.132C1669.15 181.971 1675.3 178.642 1683.5 176.978C1685.56 176.978 1689.66 174.481 1688.63 172.817C1687.61 171.152 1676.33 172.817 1677.35 169.488C1678.38 166.159 1688.63 169.488 1691.71 165.327C1692.73 164.494 1698.89 163.662 1700.94 165.327C1701.96 166.991 1699.91 176.978 1697.86 171.152C1697.86 170.32 1697.86 168.656 1696.84 167.823C1693.76 166.991 1689.66 176.978 1691.71 178.642C1692.73 179.474 1697.86 176.978 1699.91 176.978C1706.06 176.146 1705.04 177.81 1700.94 179.474C1697.86 180.307 1695.81 181.139 1698.89 183.636C1716.32 182.803 1729.65 181.971 1738.88 181.139C1735.8 177.81 1746.06 176.978 1746.06 181.139C1750.16 181.139 1753.23 181.139 1756.31 181.139C1755.29 176.978 1766.57 167.823 1762.46 166.159C1760.41 165.327 1753.23 171.984 1751.18 169.488C1749.13 166.991 1760.41 163.662 1759.39 159.501C1759.39 158.669 1763.49 154.508 1766.57 155.34C1768.62 156.172 1773.74 165.327 1768.62 161.998C1767.59 161.166 1766.57 159.501 1765.54 160.333C1762.46 161.166 1766.57 171.152 1769.64 171.152C1770.67 171.152 1773.74 166.991 1774.77 166.159C1778.87 162.83 1778.87 164.494 1776.82 166.991C1775.79 169.488 1773.74 171.152 1778.87 171.984C1779.9 171.984 1779.9 173.649 1778.87 173.649C1775.79 173.649 1769.64 172.817 1768.62 175.313C1767.59 179.474 1792.2 182.803 1792.2 189.461C1793.23 189.461 1794.25 189.461 1795.28 189.461C1791.18 186.132 1800.41 184.468 1799.38 189.461C1805.53 188.629 1809.63 190.293 1809.63 191.126C1809.63 191.126 1809.63 191.958 1810.66 191.958C1808.61 189.461 1805.53 184.468 1806.56 183.636C1808.61 181.971 1815.79 187.797 1815.79 188.629C1814.76 189.461 1813.74 191.126 1812.71 191.958C1815.79 192.79 1820.91 192.79 1826.04 193.622C1827.07 193.622 1827.07 192.79 1828.09 193.622C1849.63 194.454 1882.44 193.622 1880.39 191.126C1877.31 187.797 1894.75 181.139 1892.7 188.629C1890.65 196.951 1921.41 189.461 1926.54 196.119C1933.71 206.106 1960.38 194.454 1966.53 211.099C1972.68 216.924 1958.32 228.576 1946.02 224.414ZM893.908 293.489C895.959 298.482 906.214 298.482 905.188 295.153C900.061 296.818 898.01 292.657 893.908 293.489ZM70.4727 122.051C70.4727 122.883 69.4472 122.883 69.4472 123.716C70.4727 123.716 70.4727 124.548 70.4727 125.38C71.4981 125.38 71.4981 124.548 71.4981 125.38C72.5236 123.716 72.5236 122.883 70.4727 122.051ZM69.4472 127.044C68.4218 127.044 68.4218 127.044 68.4218 126.212C67.3963 127.044 67.3963 128.709 66.3709 129.541C67.3963 129.541 67.3963 128.709 68.4218 128.709C68.4218 128.709 68.4218 127.877 69.4472 127.044ZM44.8364 148.682C43.811 147.85 42.7855 146.186 40.7346 145.353C40.7346 147.018 42.7856 147.85 44.8364 148.682ZM48.9382 143.689C48.9382 145.353 52.0146 145.353 54.0655 143.689C54.0655 142.024 52.0146 140.36 50.9891 139.528C49.9637 139.528 47.9128 140.36 46.8873 140.36C46.8873 142.024 48.9382 142.857 48.9382 143.689ZM325.81 310.966C326.835 311.798 327.86 310.966 328.886 310.966C327.86 310.966 326.835 310.966 325.81 310.966ZM90.9816 128.709C93.0325 129.541 94.058 128.709 95.0835 127.877C94.058 128.709 92.0071 128.709 90.9816 128.709ZM137.127 112.897C139.178 115.393 141.229 114.561 141.229 110.4C140.203 112.064 138.152 112.897 137.127 112.897ZM366.827 310.966C365.802 310.966 364.777 310.966 362.726 310.966C363.751 311.798 364.777 311.798 366.827 310.966ZM347.344 316.791C348.369 317.623 352.471 316.791 351.446 315.959C349.395 314.294 349.395 313.462 348.369 311.798C343.242 311.798 345.293 311.798 334.013 310.966C339.14 311.798 343.242 314.294 347.344 316.791ZM320.682 319.288C323.759 320.952 326.835 313.462 322.733 312.63C322.733 312.63 321.708 313.462 320.682 313.462C319.657 313.462 318.631 312.63 317.606 311.798C315.555 311.798 313.504 312.63 312.479 312.63C313.504 313.462 316.58 315.127 315.555 315.959C313.504 320.12 318.631 318.456 320.682 319.288ZM254.028 327.61C255.054 326.778 256.079 324.281 257.104 324.281C256.079 322.617 255.053 321.784 253.003 320.952C253.003 323.449 249.926 324.281 248.901 326.778C247.875 329.274 249.926 332.603 254.028 327.61ZM248.901 317.623C246.85 316.791 245.824 315.959 243.774 315.127V315.959C242.748 318.456 247.875 319.288 248.901 317.623ZM237.621 320.12V319.288C236.595 319.288 236.595 319.288 237.621 320.12C236.595 320.12 236.595 320.12 237.621 320.12ZM8.94572 182.803C10.9966 181.139 12.0221 179.474 13.0475 177.81C10.9966 177.81 7.92027 179.474 8.94572 182.803ZM110.465 116.226C111.491 116.226 113.542 117.058 114.567 117.89C114.567 116.226 112.516 115.393 110.465 116.226ZM130.974 115.393C130.974 114.561 130.974 114.561 130.974 113.729C129.949 115.393 129.949 115.393 130.974 115.393C126.872 121.219 123.796 116.226 125.847 113.729C124.821 112.897 123.796 112.064 124.821 110.4C115.592 112.064 130.974 127.044 130.974 115.393ZM179.17 108.736C175.068 112.897 174.043 116.226 167.89 117.058C167.89 117.058 167.89 117.89 167.89 118.722C173.018 118.722 179.17 117.89 184.298 114.561C182.247 113.729 180.196 112.897 180.196 112.064C180.196 111.232 180.196 110.4 179.17 108.736ZM305.301 117.89C306.326 121.219 307.351 124.548 308.377 126.212C310.428 126.212 312.479 125.38 314.53 125.38C314.53 125.38 314.53 124.548 315.555 123.716C312.479 126.212 307.351 122.051 305.301 117.89ZM1140.02 251.046C1137.97 251.046 1136.94 251.046 1134.89 251.046C1138.99 254.374 1141.04 252.71 1140.02 251.046ZM1087.72 267.69C1083.62 269.354 1082.59 272.683 1090.79 271.019C1092.85 271.019 1095.92 269.354 1095.92 270.187C1099 274.348 1100.02 269.354 1102.07 268.522C1103.1 267.69 1103.1 266.858 1102.07 266.026C1101.05 270.187 1095.92 265.193 1099 263.529C1097.97 262.697 1095.92 262.697 1095.92 263.529C1095.92 263.529 1095.92 264.361 1095.92 265.193C1093.87 266.858 1090.79 266.858 1087.72 267.69ZM1095.92 260.2C1095.92 259.368 1095.92 259.368 1096.95 258.536C1094.9 258.536 1092.85 259.368 1091.82 259.368C1091.82 261.032 1094.9 262.697 1095.92 260.2ZM924.672 282.67C923.646 282.67 922.621 282.67 921.596 283.502C922.621 284.334 923.646 283.502 924.672 282.67ZM863.145 290.16C863.145 290.16 864.17 290.16 863.145 290.16C864.17 290.16 864.17 289.328 863.145 290.16C864.17 289.328 863.145 290.16 863.145 290.16ZM869.298 290.992C868.272 290.16 867.247 288.496 866.221 290.16C867.247 290.992 868.272 290.992 869.298 290.992ZM826.229 305.972C828.28 305.14 830.331 303.476 831.356 304.308C835.458 307.637 835.458 302.643 836.483 301.811C837.509 300.979 837.509 300.147 835.458 299.314C833.407 299.314 831.356 299.314 828.28 300.147C827.254 301.811 824.178 301.811 822.127 303.476C819.051 305.14 819.051 308.469 826.229 305.972ZM1650.69 175.313C1647.61 176.146 1648.64 180.307 1651.72 178.642C1654.79 177.81 1653.77 175.313 1650.69 175.313ZM1689.66 180.307C1692.73 180.307 1694.78 180.307 1697.86 180.307C1690.68 175.313 1688.63 177.81 1689.66 180.307ZM1780.92 180.307C1780.92 181.139 1779.9 181.139 1779.9 181.971C1782.97 182.803 1786.05 183.636 1789.13 184.468C1787.07 181.971 1780.92 178.642 1780.92 180.307ZM1.76759 85.4333C-0.283318 83.7689 -3.35967 83.7689 -5.41057 85.4333C-9.51237 90.4267 5.86938 90.4267 1.76759 85.4333ZM1804.51 175.313C1801.43 173.649 1797.33 174.481 1797.33 176.146C1796.3 175.313 1793.23 175.313 1792.2 176.146C1791.18 178.642 1796.3 180.307 1797.33 176.978C1799.38 179.474 1807.58 178.642 1804.51 175.313ZM952.359 153.676C952.359 157.004 957.486 156.172 957.486 153.676C957.486 151.179 952.359 150.347 952.359 153.676ZM597.554 108.736C597.554 105.407 592.426 106.239 592.426 108.736C591.401 111.232 597.554 112.064 597.554 108.736ZM201.73 88.7622C199.679 86.2655 196.603 85.4333 194.552 87.0978C193.527 87.0978 193.527 87.93 193.527 88.7622C189.425 96.2522 195.577 99.5811 200.705 97.0844C199.679 97.9167 198.654 101.246 199.679 102.078C205.832 107.071 203.781 96.2522 200.705 97.0844C202.756 96.2522 202.756 94.5878 202.756 92.9233C205.832 92.0911 204.807 88.7622 201.73 88.7622ZM16.1239 90.4267C15.0984 88.7622 14.073 87.0978 10.9966 86.2655C3.81847 83.7689 16.1239 110.4 16.1239 93.7555C27.4038 96.2522 22.2766 86.2655 16.1239 90.4267ZM40.7346 104.574C40.7346 107.903 45.8619 107.071 45.8619 104.574C45.8619 101.246 40.7346 101.246 40.7346 104.574ZM102.262 41.3255C100.211 39.6611 97.1344 39.6611 95.0835 41.3255C89.9562 45.4867 107.389 45.4867 102.262 41.3255ZM136.101 95.42C136.101 92.0911 130.974 92.0911 130.974 95.42C130.974 98.7489 136.101 98.7489 136.101 95.42ZM150.458 72.95C148.407 71.2855 145.33 71.2855 143.28 72.95C139.178 76.2789 153.534 76.2789 150.458 72.95ZM157.636 92.9233C157.636 91.2589 156.61 90.4267 155.585 89.5944C155.585 87.0978 152.509 85.4333 152.509 88.7622C141.229 87.93 157.636 106.239 157.636 92.9233ZM126.872 89.5944C130.974 84.6011 113.542 84.6011 117.643 89.5944C120.72 93.7555 123.796 94.5878 126.872 89.5944ZM-7.46146 363.396C-11.5633 360.899 -14.6396 367.557 -16.6905 369.221C-17.716 370.053 -18.7414 371.718 -17.716 372.55C-15.6651 373.382 -13.6142 370.886 -11.5633 370.053C-10.5378 367.557 -5.41057 365.06 -7.46146 363.396ZM113.542 21.3522C114.567 20.52 119.694 17.1911 116.618 15.5266C112.516 13.03 110.465 20.52 108.414 22.1844C107.389 23.0166 107.389 24.6811 108.414 25.5133C110.465 26.3455 112.516 23.0167 113.542 21.3522ZM109.44 101.246C110.465 101.246 110.465 102.078 111.491 102.078C108.414 107.071 112.516 105.407 114.567 102.91C116.618 102.91 118.669 102.078 116.618 98.7489C117.643 96.2522 117.643 93.7555 115.592 96.2522C114.567 94.5878 113.542 92.9233 111.491 90.4267C107.389 87.93 104.312 99.5811 109.44 101.246ZM-36.174 164.494C-32.0722 171.984 -26.945 179.474 -22.8432 187.797C-23.8687 187.797 -23.8687 188.629 -23.8687 188.629C-22.8432 191.126 -27.9704 197.783 -25.9195 204.441C-24.8941 208.602 -18.7414 201.112 -18.7414 197.783C-18.7414 195.287 -19.7669 193.622 -20.7923 191.126C-20.7923 191.958 -19.7669 192.79 -19.7669 193.622C-18.7414 195.287 -15.6651 191.958 -17.716 189.461C-14.6396 189.461 -8.48692 184.468 -9.51236 181.971C-9.51236 180.307 -16.6905 183.636 -18.7414 186.964C-21.8178 181.139 -25.9195 175.313 -28.9959 169.488C-26.945 169.488 -26.945 166.991 -31.0468 166.159C-31.0468 165.327 -32.0722 164.494 -32.0722 163.662C-34.1231 160.333 -37.1995 162.83 -36.174 164.494ZM-44.3776 83.7689C-48.4794 82.1044 -54.6321 88.7622 -50.5303 90.4267C-47.454 91.2589 -40.2758 85.4333 -44.3776 83.7689ZM33.5565 56.3055C27.4038 55.4733 26.3784 67.1244 30.4801 64.6278C38.6837 59.6344 37.6583 56.3055 33.5565 56.3055ZM-20.7923 309.301C-24.8941 306.804 -31.0468 318.456 -28.9959 319.288C-26.945 319.288 -16.6905 310.966 -20.7923 309.301ZM-72.0648 256.871C-76.1666 256.039 -81.2938 262.697 -76.1666 264.361C-70.0139 266.026 -66.9375 258.536 -72.0648 256.871ZM180.196 55.4733C176.094 54.6411 175.068 61.2989 176.094 62.1311C180.196 63.7955 184.298 56.3055 180.196 55.4733ZM-80.2684 170.32C-78.2175 166.991 -88.472 163.662 -90.5228 166.991C-92.5737 171.152 -82.3193 173.649 -80.2684 170.32ZM120.72 360.899C122.771 372.55 130.974 370.886 132 366.724C135.076 361.731 120.72 357.57 120.72 360.899ZM-85.3956 127.877C-93.5992 125.38 -93.5992 131.206 -88.472 132.038C-85.3956 132.87 -82.3193 128.709 -85.3956 127.877ZM38.6837 337.597C40.7346 348.416 48.9382 347.583 49.9637 343.422C52.0146 338.429 38.6837 334.268 38.6837 337.597ZM-10.5378 141.192C-6.43601 142.024 3.81847 130.373 -2.33422 127.877C-10.5378 125.38 -18.7414 140.36 -10.5378 141.192ZM2.79302 107.903C1.76758 107.071 0.742126 107.071 0.742126 107.903C-4.38512 112.064 3.81848 118.722 3.81848 111.232C4.84393 112.064 5.86938 113.729 6.89483 115.393C15.0984 122.883 21.2511 120.387 14.073 107.903C12.0221 104.574 2.79302 103.742 2.79302 107.903ZM272.486 82.9366C274.537 94.5878 282.741 92.9233 283.766 88.7622C285.817 83.7689 271.461 79.6078 272.486 82.9366ZM-31.0468 134.534C-33.0977 131.206 -36.174 140.36 -34.1231 143.689C-33.0977 147.018 -23.8687 150.347 -21.8177 147.018C-19.7669 142.024 -27.9704 138.696 -31.0468 134.534ZM-48.4794 235.233C-48.4794 232.737 -57.7085 228.576 -57.7085 232.737C-57.7085 241.059 -48.4794 237.73 -48.4794 235.233ZM236.595 65.46C241.723 62.1311 236.595 55.4733 236.595 50.48C236.595 47.1511 228.392 53.8089 228.392 57.1378C228.392 61.2989 233.519 67.9566 236.595 65.46ZM194.552 23.8489C189.425 18.8555 186.348 23.0166 189.425 26.3455C191.476 28.01 196.603 26.3455 194.552 23.8489ZM171.992 62.9633C176.094 60.4667 168.916 53.8089 165.839 56.3055C160.712 58.8022 168.916 64.6278 171.992 62.9633ZM304.275 26.3455C300.173 23.0166 299.148 33.0033 298.122 37.1644C297.097 42.99 310.428 32.1711 304.275 26.3455ZM245.824 81.2722C249.926 84.6011 261.206 79.6078 256.079 75.4467C253.003 72.1178 240.697 77.9433 245.824 81.2722ZM469.372 67.1244C467.322 64.6278 461.169 69.6211 462.194 71.2855C463.22 74.6144 471.423 69.6211 469.372 67.1244ZM381.184 47.1511C374.006 50.48 377.082 62.9633 382.209 59.6344C386.311 57.97 386.311 45.4866 381.184 47.1511ZM372.98 98.7489C375.031 97.0844 371.955 90.4267 368.878 92.9233C366.827 94.5878 369.904 101.246 372.98 98.7489ZM292.995 46.3189C294.021 41.3255 277.613 35.5 281.715 50.48C283.766 59.6344 290.944 59.6344 292.995 46.3189ZM416.049 97.0844C413.998 95.42 405.795 99.5811 407.845 101.246C409.896 103.742 420.151 99.5811 416.049 97.0844ZM265.308 57.1378C260.181 51.3122 244.799 61.2989 249.926 65.46C253.003 67.1244 269.41 62.1311 265.308 57.1378ZM386.311 70.4533C385.286 66.2922 376.057 75.4466 379.133 78.7755C383.235 85.4333 389.387 85.4333 386.311 70.4533ZM305.301 66.2922C301.199 62.9633 285.817 67.1244 286.842 68.7889C288.893 73.7822 311.453 72.1178 305.301 66.2922ZM334.013 77.1111C328.886 80.44 310.428 74.6144 295.046 82.1044C285.817 86.2655 307.351 92.0911 315.555 90.4267C323.759 88.7622 329.911 83.7689 337.089 79.6078C339.14 77.9433 336.064 75.4466 334.013 77.1111ZM437.583 7.20443C435.533 3.04332 429.38 8.86887 426.304 9.70109C425.278 9.70109 423.227 11.3655 424.253 12.1978C425.278 13.8622 429.38 12.1978 431.431 11.3655C433.482 11.3655 439.634 10.5333 437.583 7.20443ZM303.25 100.413C302.224 102.078 302.224 103.742 304.275 102.91C314.53 95.42 308.377 112.897 318.631 107.071C322.733 105.407 313.504 102.078 309.402 99.5811C311.453 97.0844 303.25 93.7555 301.199 95.42C298.122 97.0844 300.173 98.7489 303.25 100.413ZM342.217 8.86887C337.089 5.53998 328.886 15.5266 334.013 14.6944C343.242 14.6944 344.268 11.3655 342.217 8.86887ZM358.624 97.0844C363.751 94.5878 345.293 81.2722 339.14 85.4333C329.911 89.5944 352.471 99.5811 358.624 97.0844ZM344.268 67.9567C351.446 60.4667 343.242 36.3322 341.191 54.6411C340.166 62.9633 338.115 75.4467 344.268 67.9567ZM257.104 1.37887C255.054 -1.95002 244.799 1.37887 247.875 4.70776C249.926 7.20443 259.155 5.53998 257.104 1.37887ZM-57.7085 193.622C-57.7085 190.293 -59.7594 185.3 -62.8357 186.132C-70.0139 186.964 -59.7594 201.944 -57.7085 195.287C-46.4285 201.944 -52.5812 192.79 -57.7085 193.622ZM-44.3776 212.763C-48.4794 213.596 -44.3776 221.086 -41.3013 219.421C-40.2758 219.421 -41.3013 211.931 -44.3776 212.763ZM-20.7923 167.823C-22.8432 167.823 -18.7414 171.984 -16.6905 171.984C-12.5887 171.152 -11.5633 168.656 -20.7923 167.823ZM-30.0213 243.556C-32.0722 240.227 -39.2504 242.723 -36.174 245.22C-32.0722 248.549 -27.9705 246.052 -30.0213 243.556ZM-35.1486 219.421C-37.1995 220.253 -36.174 225.247 -33.0977 224.414C-31.0468 222.75 -32.0722 217.757 -35.1486 219.421ZM-79.2429 208.602C-81.2938 208.602 -80.2684 213.596 -78.2175 212.763C-76.1666 212.763 -76.1666 208.602 -79.2429 208.602ZM-35.1486 253.542C-34.1231 252.71 -39.2504 249.381 -41.3013 251.046C-42.3267 252.71 -36.174 255.207 -35.1486 253.542ZM-60.7848 181.139C-59.7594 176.978 -61.8103 176.146 -63.8612 176.978C-65.9121 178.642 -60.7848 182.803 -60.7848 181.139ZM-35.1486 206.938C-32.0722 206.938 -30.0213 197.783 -34.1231 199.448C-36.174 199.448 -36.174 206.938 -35.1486 206.938ZM-73.0902 238.562C-72.0648 237.73 -72.0648 236.066 -74.1157 236.066C-78.2175 237.73 -75.1411 239.394 -73.0902 238.562ZM-52.5812 223.582C-54.6321 222.75 -51.5558 226.911 -49.5049 227.743C-47.454 228.576 -42.3267 226.911 -43.3522 225.247C-45.4031 222.75 -49.5049 223.582 -52.5812 223.582ZM-0.283325 159.501C-2.33422 157.004 -6.43601 157.837 -9.51236 164.494C-12.5887 175.313 -11.5633 175.313 -2.33422 166.991C-1.30877 165.327 -0.283325 164.494 -0.283325 162.83C1.76758 162.83 1.76758 160.333 -0.283325 159.501ZM27.4038 281.838C24.3275 282.67 27.4038 287.663 28.4293 287.663C29.4547 287.663 29.4547 281.838 27.4038 281.838ZM-5.41057 176.146C-6.43602 175.313 -10.5378 175.313 -9.51236 176.978C-9.51236 178.642 -4.38512 178.642 -5.41057 176.146ZM0.742126 243.556C12.0221 243.556 0.742126 238.562 -7.46146 237.73C-9.51237 237.73 -16.6905 245.22 -8.48691 244.388C-5.41056 245.22 -3.35966 243.556 0.742126 243.556ZM-27.9705 183.636C-31.0468 181.139 -40.2758 180.307 -40.2758 181.139C-43.3522 180.307 -46.4285 180.307 -46.4285 182.803C-46.4285 198.616 -26.945 189.461 -37.1995 181.971C-35.1486 182.803 -34.1231 182.803 -33.0977 183.636C-38.2249 188.629 -26.945 194.454 -30.0213 184.468C-26.945 185.3 -25.9195 185.3 -27.9705 183.636ZM-17.716 204.441C-16.6905 206.106 -12.5887 203.609 -13.6142 201.944C-14.6396 200.28 -17.716 203.609 -17.716 204.441ZM-13.6142 278.509C-15.6651 279.341 -14.6396 283.502 -11.5633 282.67C-8.48691 281.006 -10.5378 277.677 -13.6142 278.509ZM-53.6067 250.213C-54.6321 248.549 -59.7594 250.213 -58.7339 251.878C-57.7085 254.374 -53.6067 251.878 -53.6067 250.213ZM-51.5558 138.696C-54.6321 139.528 -51.5558 144.521 -50.5303 144.521C-48.4794 144.521 -49.5049 138.696 -51.5558 138.696ZM123.796 77.1111C121.745 75.4466 118.669 75.4466 116.618 77.1111C113.542 80.44 120.72 81.2722 122.771 79.6078C125.847 79.6078 125.847 77.1111 123.796 77.1111ZM105.338 108.736C106.363 108.736 105.338 107.071 104.312 107.071C103.287 107.071 102.262 107.071 100.211 106.239C103.287 105.407 102.262 102.91 100.211 102.078C101.236 102.078 102.262 101.246 101.236 100.413C98.1598 98.7489 97.1344 101.246 99.1852 102.078C97.1344 102.078 96.1089 102.91 95.0835 103.742C92.0071 102.91 89.9562 102.078 85.8544 102.91C80.7271 102.91 88.9308 109.568 93.0325 109.568C97.1343 110.4 101.236 109.568 105.338 108.736ZM100.211 80.44C99.1852 76.2789 93.0325 70.4533 90.9816 72.95C87.9053 77.1111 93.0325 83.7689 97.1343 84.6011C96.1089 84.6011 95.0835 84.6011 95.0835 85.4333C89.9562 89.5944 107.389 89.5944 102.262 85.4333C101.236 84.6011 100.211 84.6011 99.1852 84.6011C100.211 84.6011 100.211 83.7689 100.211 83.7689C105.338 81.2722 104.312 76.2789 100.211 80.44ZM65.3454 92.9233C59.1927 86.2655 54.0655 85.4333 65.3454 103.742C64.32 103.742 64.32 103.742 63.2945 103.742C62.2691 104.574 63.2945 107.903 63.2945 108.736C63.2945 109.568 73.549 111.232 74.5745 108.736C74.5745 107.903 73.549 107.071 71.4981 106.239C71.4981 102.91 70.4727 98.7489 68.4218 96.2522C70.4727 95.42 69.4472 92.0911 65.3454 92.9233ZM78.6763 87.0978C77.6508 83.7689 68.4218 85.4333 69.4472 88.7622C70.4727 89.5944 78.6763 90.4267 78.6763 87.0978ZM-5.41057 102.91C-6.43602 101.246 -10.5378 102.078 -10.5378 103.742C-9.51236 106.239 -4.38512 105.407 -5.41057 102.91ZM-16.6905 135.367C-16.6905 132.87 -23.8687 134.534 -23.8687 135.367C-22.8432 137.031 -15.6651 137.031 -16.6905 135.367ZM31.5056 85.4333C29.4547 83.7689 25.3529 88.7622 27.4038 89.5944C29.4547 90.4267 33.5565 86.2655 31.5056 85.4333ZM-1.30877 145.353C-2.33421 145.353 -2.33422 143.689 -0.283325 143.689C5.86937 145.353 14.073 147.018 15.0984 149.514C17.1493 149.514 19.2002 149.514 17.1493 152.011C15.0984 154.508 14.073 154.508 12.0221 154.508C10.9966 155.34 10.9966 154.508 10.9966 153.676C9.97117 152.843 8.94572 152.011 7.92027 151.179C5.86937 152.011 1.76758 155.34 0.742126 155.34C-1.30877 157.004 -3.35967 157.837 -5.41057 157.004C-11.5633 155.34 -5.41057 146.186 -0.283325 147.85C-0.283325 147.85 -0.283318 147.85 0.742126 147.85C1.76758 147.018 5.86938 147.85 6.89483 147.85C5.86938 147.018 0.742134 146.186 -1.30877 145.353ZM2.79302 150.347C2.79302 151.179 2.79302 151.179 2.79302 152.011C3.81847 151.179 5.86938 150.347 6.89483 149.514C5.86938 149.514 4.84393 149.514 2.79302 150.347ZM-12.5887 163.662C-17.716 167.823 -14.6396 170.32 -11.5633 169.488C-9.51236 167.823 -11.5633 161.998 -12.5887 163.662ZM34.582 74.6144C36.6329 74.6144 35.6074 70.4533 33.5565 70.4533C30.4802 70.4533 32.5311 74.6144 34.582 74.6144ZM54.0655 60.4666C53.04 57.1378 49.9637 58.8022 50.9891 60.4666C52.0146 61.2989 54.0655 62.1311 54.0655 60.4666ZM66.3709 79.6078C67.3963 77.9433 62.2691 79.6078 61.2436 81.2722C60.2182 82.9367 61.2436 87.0978 63.2945 86.2655C66.3709 85.4333 65.3454 82.1044 66.3709 79.6078ZM49.9637 87.0978C46.8873 92.0911 43.811 96.2522 40.7346 101.246C39.7092 102.078 42.7855 102.078 43.811 101.246C46.8873 97.0844 49.9637 92.0911 52.0146 87.93C53.04 86.2655 50.9891 86.2655 49.9637 87.0978ZM37.6583 89.5944C32.5311 92.9233 35.6074 96.2522 38.6837 95.42C42.7855 94.5878 40.7346 87.93 37.6583 89.5944ZM12.0221 104.574C13.0475 103.742 12.0221 99.5811 10.9966 100.413C5.86938 102.91 9.97118 105.407 12.0221 104.574ZM87.9053 87.0978C86.8799 92.0911 89.9562 92.9233 94.058 87.0978C95.0835 84.6011 88.9308 79.6078 87.9053 87.0978ZM84.829 95.42C84.829 97.9166 95.0835 101.246 94.058 97.0844C93.0325 95.42 84.829 94.5878 84.829 95.42ZM87.9053 60.4666C87.9053 58.8022 82.7781 58.8022 82.7781 60.4666C82.7781 62.1311 87.9053 62.1311 87.9053 60.4666ZM84.829 110.4C82.7781 110.4 85.8544 114.561 87.9053 113.729C89.9562 113.729 86.8799 110.4 84.829 110.4ZM213.01 61.2989C210.959 59.6344 206.857 64.6278 207.883 65.46C208.908 66.2922 215.061 62.9633 213.01 61.2989ZM165.839 78.7755C169.941 77.1111 169.941 75.4466 167.89 74.6144C164.814 73.7822 162.763 79.6078 165.839 78.7755ZM239.672 85.4333C237.621 84.6011 236.595 87.93 236.595 88.7622C238.646 89.5944 241.723 86.2655 239.672 85.4333ZM126.872 82.1044C124.821 81.2722 121.745 83.7689 122.771 84.6011C123.796 86.2655 127.898 83.7689 126.872 82.1044ZM218.137 107.071C218.137 106.239 217.112 105.407 216.086 104.574C217.112 94.5878 218.137 85.4333 218.137 75.4467C218.137 72.1178 214.036 73.7822 214.036 74.6144C213.01 83.7689 211.985 93.7555 210.959 102.91C209.934 102.91 207.883 103.742 206.857 105.407C201.73 112.064 216.086 117.058 218.137 108.736C222.239 108.736 221.214 104.574 218.137 107.071ZM286.842 109.568C287.868 107.071 281.715 104.574 281.715 106.239C281.715 112.064 285.817 112.064 286.842 109.568ZM276.588 109.568C274.537 108.736 275.562 114.561 278.639 114.561C282.741 115.393 284.792 113.729 276.588 109.568ZM233.519 109.568C235.57 106.239 234.545 104.574 232.494 105.407C229.417 106.239 232.494 112.064 233.519 109.568ZM355.548 81.2722C355.548 78.7755 347.344 78.7755 348.369 80.44C352.471 85.4333 356.573 83.7689 355.548 81.2722ZM268.384 105.407C274.537 103.742 280.69 101.246 279.664 98.7489C278.639 95.42 256.079 94.5878 255.053 96.2522C254.028 97.0844 255.054 99.5811 257.104 102.078C250.952 102.91 251.977 107.903 260.181 106.239C260.181 106.239 262.232 106.239 264.283 106.239C267.359 110.4 272.486 109.568 268.384 105.407ZM285.817 122.883C285.817 121.219 281.715 120.387 281.715 122.051C281.715 123.716 285.817 124.548 285.817 122.883ZM261.206 73.7822C258.13 73.7822 259.155 79.6078 260.181 79.6078C261.206 79.6078 263.257 74.6144 261.206 73.7822ZM379.133 99.5811C381.184 99.5811 381.184 95.42 379.133 96.2522C376.057 97.9167 377.082 99.5811 379.133 99.5811ZM298.122 107.903C297.097 107.903 296.071 112.064 298.122 112.064C299.148 112.064 300.173 107.903 298.122 107.903ZM396.565 75.4467C394.515 74.6144 392.464 80.44 393.489 80.44C394.515 81.2722 398.616 76.2789 396.565 75.4467ZM358.624 105.407C361.7 102.91 360.675 101.246 359.649 101.246C356.573 101.246 357.598 107.071 358.624 105.407ZM431.431 90.4267C429.38 90.4267 429.38 93.7555 430.405 93.7555C432.456 95.42 433.482 91.2589 431.431 90.4267ZM504.238 119.554C501.161 120.387 501.161 122.051 503.212 122.883C505.263 122.883 506.289 118.722 504.238 119.554ZM485.78 100.413C485.78 97.9167 478.601 97.0844 479.627 98.7489C482.703 103.742 485.78 102.91 485.78 100.413ZM88.9308 346.751C85.8544 346.751 86.8799 352.577 87.9053 352.577C88.9308 352.577 90.9816 347.583 88.9308 346.751ZM10.9966 279.341C12.0221 279.341 13.0475 276.844 10.9966 276.844C6.89482 276.844 8.94572 279.341 10.9966 279.341ZM129.949 350.08C129.949 347.583 121.745 348.416 122.771 349.248C127.898 354.241 130.974 352.577 129.949 350.08ZM113.542 333.436C106.363 324.281 121.745 332.603 115.592 326.778C110.465 322.617 105.338 330.939 102.262 336.764C101.236 337.597 103.287 337.597 104.312 337.597C106.363 335.932 108.414 331.771 110.465 331.771C112.516 331.771 113.542 335.1 114.567 336.764C115.592 339.261 117.643 338.429 113.542 333.436ZM81.7526 310.133C82.778 310.966 82.7781 312.63 83.8035 313.462C81.7526 315.127 81.7526 320.12 90.9816 322.617C101.236 325.946 95.0835 314.294 88.9308 312.63C86.8799 310.133 80.7272 308.469 81.7526 310.133ZM52.0146 336.764C55.0909 336.764 55.0909 332.603 52.0146 332.603C48.9382 332.603 48.9382 336.764 52.0146 336.764ZM52.0146 319.288C54.0655 323.449 58.1673 320.12 57.1418 318.456C56.1164 317.623 50.9891 317.623 52.0146 319.288ZM199.679 345.919C201.73 343.422 194.552 336.764 193.527 340.093C192.501 342.59 198.654 346.751 199.679 345.919ZM203.781 389.194C202.756 392.523 205.832 391.691 205.832 390.027C205.832 389.194 203.781 387.53 203.781 389.194ZM207.883 358.402C207.883 356.738 200.705 353.409 199.679 355.906C198.654 359.234 207.883 361.731 207.883 358.402ZM201.73 330.107C198.654 327.61 194.552 327.61 190.45 325.946C189.425 325.113 189.425 326.778 190.45 327.61C193.527 328.442 196.603 335.932 203.781 339.261C207.883 340.926 204.807 331.771 201.73 330.107ZM317.606 357.57C317.606 356.738 312.479 353.409 311.453 355.073C310.428 355.906 317.606 357.57 317.606 357.57ZM191.476 352.577C195.577 349.248 193.527 346.751 186.348 350.08C183.272 350.912 185.323 357.57 191.476 352.577ZM266.333 373.382C271.461 373.382 269.41 369.221 267.359 369.221C265.308 369.221 264.283 373.382 266.333 373.382ZM281.715 377.543C281.715 379.208 285.817 380.872 286.842 379.208C286.842 376.711 282.741 375.047 281.715 377.543ZM246.85 348.416C244.799 350.08 247.875 358.402 253.003 353.409C255.053 350.912 256.079 348.416 258.13 346.751C264.283 340.093 253.003 343.422 246.85 348.416ZM227.366 389.194C230.443 390.027 231.468 385.866 228.392 385.033C226.341 384.201 225.315 388.362 227.366 389.194ZM208.908 329.274C206.857 328.442 206.857 332.603 208.908 333.436C210.959 333.436 210.959 329.274 208.908 329.274ZM244.799 375.047C244.799 373.382 237.621 375.047 238.646 376.711C238.646 379.208 244.799 377.543 244.799 375.047ZM223.265 367.557C229.417 365.06 234.545 361.731 240.697 359.234C241.723 358.402 239.672 357.57 238.646 358.402C233.519 360.899 228.392 363.396 223.265 365.892C220.188 366.724 222.239 367.557 223.265 367.557ZM235.57 370.886C241.723 370.053 241.723 366.724 238.646 365.892C234.545 365.06 231.468 370.886 235.57 370.886ZM218.137 355.073C218.137 352.577 213.01 350.08 211.985 353.409C210.959 355.906 217.112 358.402 218.137 355.073ZM211.985 362.563C208.908 361.731 206.857 365.06 204.806 366.724C202.756 367.557 208.908 368.389 210.959 367.557C211.985 367.557 214.036 363.396 211.985 362.563ZM222.239 347.583C223.265 347.583 225.315 344.254 226.341 343.422C226.341 342.59 219.163 337.597 217.112 338.429C215.061 340.093 221.214 347.583 222.239 347.583ZM320.682 330.939C320.682 330.107 318.631 330.107 317.606 329.274C316.58 328.442 315.555 327.61 313.504 328.442C309.402 330.107 319.657 334.268 320.682 330.939ZM356.573 349.248C361.7 350.912 359.649 347.583 357.598 347.583C355.548 347.583 350.42 345.087 350.42 347.583C349.395 349.248 354.522 348.416 356.573 349.248ZM314.53 338.429C319.657 335.932 307.351 330.107 308.377 335.932C308.377 337.597 312.479 339.261 314.53 338.429ZM345.293 365.06C345.293 365.892 346.319 370.886 348.369 370.886C350.42 370.886 349.395 367.557 349.395 366.724C349.395 362.563 349.395 359.234 344.268 355.906C340.166 354.241 348.369 350.912 346.319 350.08C344.268 349.248 343.242 351.744 341.191 352.577C332.988 356.738 350.42 357.57 345.293 365.06ZM299.148 371.718C300.173 369.221 294.021 366.724 294.021 368.389C294.021 374.214 297.097 374.214 299.148 371.718ZM319.657 349.248C328.886 346.751 318.631 343.422 337.089 345.919C343.242 346.751 344.268 345.087 343.242 343.422C339.14 339.261 344.268 333.436 339.14 330.939C335.039 329.274 331.962 335.1 336.064 339.261C338.115 340.926 326.835 345.919 322.733 340.093C320.682 337.597 316.58 340.093 319.657 341.758C322.733 344.254 322.733 345.919 318.631 346.751C316.58 348.416 316.58 350.08 319.657 349.248ZM354.522 370.886C352.471 373.382 360.675 373.382 360.675 371.718C361.7 370.053 356.573 369.221 354.522 370.886ZM331.962 385.033C331.962 390.859 336.064 390.859 337.089 388.362C339.14 385.866 331.962 383.369 331.962 385.033ZM322.733 354.241C322.733 358.402 330.937 360.067 331.962 356.738C332.988 355.073 322.733 351.744 322.733 354.241ZM361.7 329.274C359.649 330.939 366.827 331.771 366.827 330.107C367.853 328.442 362.726 328.442 361.7 329.274ZM375.031 341.758C378.107 342.59 380.158 339.261 379.133 338.429C375.031 335.932 370.929 340.926 375.031 341.758ZM365.802 324.281C365.802 325.113 372.98 324.281 374.006 322.617C375.031 321.784 374.006 317.623 371.955 317.623C370.929 317.623 370.929 319.288 369.904 320.952C368.878 321.784 365.802 322.617 365.802 324.281ZM380.158 348.416C379.133 346.751 367.853 350.08 367.853 350.912C367.853 351.744 370.929 354.241 371.955 355.073C372.98 355.073 381.184 350.08 380.158 348.416ZM449.889 325.946C448.863 327.61 452.965 330.107 453.991 329.274C456.042 326.778 451.94 323.449 449.889 325.946ZM361.7 360.899C360.675 362.563 363.751 365.06 363.751 363.396C364.777 359.234 362.726 359.234 361.7 360.899ZM379.133 317.623C378.107 316.791 377.082 317.623 378.107 320.12C379.133 322.617 382.209 318.456 379.133 317.623ZM386.311 329.274C388.362 325.946 393.489 317.623 397.591 319.288C400.667 320.12 398.616 325.113 397.591 327.61C397.591 329.274 399.642 329.274 399.642 328.442C401.693 324.281 403.744 326.778 405.795 327.61C408.871 330.107 410.922 330.107 407.845 325.946C406.82 324.281 402.718 321.784 402.718 320.952C403.744 318.456 416.049 316.791 417.074 319.288C417.074 320.12 415.024 320.952 413.998 321.784C408.871 325.113 421.176 322.617 422.202 321.784C423.227 319.288 420.151 315.127 419.125 315.127C413.998 315.127 411.947 305.972 408.871 306.804C405.795 307.637 411.947 315.127 409.896 315.959C408.871 317.623 403.744 315.127 402.718 313.462C397.591 308.469 390.413 305.14 388.362 311.798C387.336 315.959 386.311 316.791 385.286 319.288C384.26 320.952 381.184 322.617 384.26 325.113C385.286 325.946 379.133 331.771 377.082 330.939C376.057 330.107 377.082 328.442 377.082 327.61C377.082 323.449 371.955 330.107 371.955 331.771C374.006 338.429 381.184 335.1 386.311 329.274ZM411.947 326.778C409.896 329.274 413.998 336.764 417.074 333.436C420.151 331.771 412.973 325.113 411.947 326.778ZM384.26 339.261C387.336 340.926 388.362 336.764 386.311 335.932C383.235 333.436 380.158 337.597 384.26 339.261ZM392.464 370.886C389.387 370.053 391.438 378.376 393.489 376.711C394.515 375.879 394.515 371.718 392.464 370.886ZM398.616 360.899C400.667 361.731 403.744 359.234 402.718 358.402C400.667 356.738 396.565 360.067 398.616 360.899ZM744.193 338.429C741.116 340.926 744.193 341.758 746.244 340.093C747.269 340.093 746.244 337.597 744.193 338.429ZM850.84 305.14C849.814 304.308 848.789 306.804 847.763 307.637C846.738 308.469 844.687 309.301 845.712 310.133C846.738 313.462 853.916 306.804 850.84 305.14ZM824.178 327.61C826.229 328.442 829.305 329.274 831.356 330.107C832.381 330.107 835.458 327.61 833.407 325.946C831.356 325.113 822.127 326.778 824.178 327.61ZM853.916 315.959C858.018 316.791 861.094 310.133 855.967 310.133C854.941 308.469 852.89 307.637 852.89 308.469C851.865 310.966 851.865 311.798 851.865 312.63C850.84 314.294 850.839 315.959 853.916 315.959ZM727.786 314.294C725.735 315.127 728.811 319.288 729.836 318.456C731.887 316.791 729.837 313.462 727.786 314.294ZM863.145 357.57C864.17 356.738 861.094 351.744 859.043 352.577C856.992 353.409 863.145 357.57 863.145 357.57ZM808.796 350.08C813.923 351.744 813.923 347.583 811.872 346.751C810.847 346.751 806.745 349.248 808.796 350.08ZM887.756 335.932C894.934 337.597 895.959 334.268 892.883 332.603C890.832 331.771 885.705 335.932 887.756 335.932ZM878.527 309.301C883.654 310.133 887.756 304.308 884.679 302.643C882.628 301.811 875.45 308.469 878.527 309.301ZM863.145 336.764C863.145 334.268 861.094 330.107 863.145 329.274C864.17 328.442 868.272 330.939 870.323 330.939C874.425 331.771 875.45 330.107 868.272 328.442C855.967 325.113 874.425 323.449 864.17 322.617C853.916 321.784 862.119 343.422 863.145 336.764ZM819.051 360.899C818.025 362.563 820.076 365.06 822.127 364.228C825.203 361.731 821.102 358.402 819.051 360.899ZM767.778 314.294C768.804 313.462 764.702 306.804 761.625 308.469C758.549 310.133 765.727 316.791 767.778 314.294ZM788.287 343.422C789.313 341.758 782.134 340.926 781.109 342.59C781.109 344.254 788.287 345.087 788.287 343.422ZM789.313 332.603C786.236 330.107 780.084 334.268 784.185 335.932C789.313 337.597 791.363 334.268 789.313 332.603ZM763.676 323.449C765.727 323.449 769.829 320.952 767.778 319.288C765.727 317.623 761.625 319.288 758.549 320.12C757.524 320.12 761.625 323.449 763.676 323.449ZM778.033 315.127C780.084 313.462 775.982 309.301 773.931 310.966C771.88 312.63 775.982 317.623 778.033 315.127ZM774.956 328.442C781.109 328.442 788.287 328.442 794.44 328.442C795.465 328.442 794.44 326.778 793.414 326.778C787.262 326.778 781.109 326.778 774.956 326.778C772.905 326.778 773.931 328.442 774.956 328.442ZM809.822 328.442C812.898 327.61 814.949 325.946 818.025 324.281C828.28 320.952 815.974 319.288 807.771 320.952C805.72 321.784 802.643 330.939 809.822 328.442ZM786.236 310.966C787.262 311.798 790.338 309.301 792.389 308.469C793.414 308.469 789.313 300.147 787.262 300.147C785.211 300.979 785.211 310.133 786.236 310.966ZM765.727 348.416C767.778 350.08 770.854 346.751 769.829 345.087C767.778 344.254 763.676 347.583 765.727 348.416ZM956.461 288.496C955.435 287.663 954.41 287.663 953.385 290.992C953.385 292.657 958.512 290.992 956.461 288.496ZM982.097 271.851C980.046 270.187 973.893 273.516 976.97 276.012C979.021 278.509 984.148 273.516 982.097 271.851ZM988.25 276.844C987.224 276.012 983.122 278.509 985.173 280.173C987.224 281.006 989.275 276.844 988.25 276.844ZM1001.58 272.683C1000.56 271.019 994.402 271.851 995.428 273.516C996.453 274.348 1002.61 273.516 1001.58 272.683ZM946.206 288.496C944.155 289.328 940.054 289.328 940.054 290.16C939.028 290.992 947.232 291.824 948.257 290.992C949.283 290.16 950.308 285.999 949.283 285.999C948.257 285.999 947.232 287.663 946.206 288.496ZM953.385 335.1C954.41 336.764 959.537 335.1 958.512 333.436C956.461 331.771 952.359 333.436 953.385 335.1ZM940.054 309.301C942.104 310.966 946.206 308.469 945.181 306.804C943.13 304.308 938.003 307.637 940.054 309.301ZM942.104 341.758C940.054 340.093 938.003 348.416 940.054 347.583C943.13 346.751 944.155 343.422 942.104 341.758ZM880.578 335.932C877.501 340.926 881.603 342.59 883.654 340.926C885.705 339.261 881.603 334.268 880.578 335.932ZM893.908 310.133C894.934 309.301 887.756 302.643 886.73 304.308C884.679 307.637 891.857 311.798 893.908 310.133ZM1035.42 277.677C1032.34 276.844 1031.32 278.509 1032.34 279.341C1033.37 281.006 1036.45 278.509 1035.42 277.677ZM902.112 321.784C901.087 322.617 900.061 327.61 902.112 327.61C904.163 327.61 904.163 325.113 905.188 323.449C907.239 320.12 909.29 316.791 905.188 312.63C902.112 309.301 911.341 309.301 910.316 307.637C909.29 305.972 906.214 308.469 904.163 308.469C894.934 310.133 910.316 315.959 902.112 321.784ZM956.461 300.979C960.562 298.482 968.766 292.657 971.843 295.153C973.893 296.818 969.792 300.979 967.741 302.643C966.715 304.308 968.766 305.14 969.792 304.308C972.868 300.979 973.893 303.476 975.944 305.972C977.995 309.301 979.021 310.133 977.995 305.14C977.995 303.476 974.919 299.314 975.944 298.482C977.995 295.986 990.301 299.314 989.275 301.811C989.275 302.643 987.224 302.643 985.173 302.643C979.021 304.308 991.326 305.972 992.351 305.14C994.402 303.476 993.377 298.482 992.351 297.65C988.25 295.986 990.301 286.831 987.224 286.831C983.122 286.831 986.199 295.153 984.148 295.986C982.097 296.818 979.021 293.489 979.021 291.824C976.97 285.167 971.843 280.173 966.715 285.999C963.639 289.328 962.614 290.16 960.563 291.824C958.512 293.489 954.41 293.489 956.461 296.818C957.486 298.482 948.257 300.979 947.232 299.314C946.206 298.482 948.257 297.65 948.257 295.986C950.308 291.824 942.104 296.818 942.104 298.482C941.079 306.804 949.283 305.14 956.461 300.979ZM983.123 315.127C986.199 313.462 983.122 305.972 982.097 306.804C979.021 309.301 979.021 316.791 983.123 315.127ZM942.104 316.791C942.104 315.127 930.825 314.294 929.799 315.127C928.774 315.959 930.825 319.288 931.85 320.12C931.85 320.952 942.104 319.288 942.104 316.791ZM939.028 295.986C940.054 295.153 935.952 293.489 933.901 293.489C931.85 295.153 938.003 298.482 939.028 295.986ZM1009.78 282.67C1010.81 281.838 1008.76 277.677 1007.73 277.677C1004.66 277.677 1007.73 284.334 1009.78 282.67ZM922.621 310.966C923.646 310.966 924.672 310.133 924.672 308.469C925.697 308.469 925.697 309.301 926.723 308.469C930.825 306.804 931.85 311.798 933.901 310.966C936.977 310.133 934.926 305.972 930.825 305.14C928.774 305.14 931.85 298.482 930.825 297.65C928.774 296.818 925.697 300.979 923.646 300.147C921.596 298.482 924.672 295.986 926.723 294.321C931.85 288.496 914.417 285.167 924.672 305.972C923.646 305.14 921.596 305.972 920.57 306.804C915.443 303.476 912.366 305.972 918.519 308.469C917.494 309.301 919.545 310.133 921.596 310.133C922.621 312.63 922.621 311.798 922.621 310.966ZM913.392 332.603C915.443 330.939 910.316 328.442 907.239 330.107C905.188 331.771 911.341 334.268 913.392 332.603ZM920.57 325.946C922.621 322.617 920.57 322.617 919.545 323.449C917.494 324.281 919.545 326.778 920.57 325.946ZM954.41 306.804C952.359 304.308 948.257 306.804 950.308 309.301C952.359 311.798 955.435 308.469 954.41 306.804ZM1020.04 322.617C1023.11 320.952 1020.04 316.791 1017.99 318.456C1015.94 319.288 1017.99 323.449 1020.04 322.617ZM1002.61 290.992C999.53 292.657 1001.58 294.321 1003.63 292.657C1004.66 292.657 1003.63 290.16 1002.61 290.992ZM1068.23 290.16C1071.31 289.328 1074.39 287.663 1077.46 287.663C1087.72 285.999 1076.44 282.67 1068.23 283.502C1066.18 283.502 1061.06 291.824 1068.23 290.16ZM1120.53 162.83C1122.58 161.998 1119.51 158.669 1118.48 160.333C1116.43 162.83 1118.48 164.494 1120.53 162.83ZM1025.17 279.341C1027.22 279.341 1031.32 277.677 1030.29 276.012C1028.24 273.516 1024.14 275.18 1021.06 275.18C1019.01 275.18 1023.11 278.509 1025.17 279.341ZM1071.31 324.281C1069.26 325.113 1071.31 329.274 1073.36 327.61C1076.44 325.946 1073.36 322.617 1071.31 324.281ZM1115.41 327.61C1116.43 326.778 1114.38 321.784 1113.35 321.784C1110.28 322.617 1114.38 327.61 1115.41 327.61ZM1119.51 307.637C1120.53 305.972 1119.51 300.979 1121.56 300.147C1123.61 299.314 1125.66 301.811 1127.71 302.643C1130.79 304.308 1132.84 302.643 1125.66 300.147C1114.38 295.153 1132.84 295.986 1122.58 293.489C1113.35 290.992 1117.46 313.462 1119.51 307.637ZM1025.17 301.811C1024.14 300.147 1020.04 302.643 1021.06 304.308C1022.09 305.972 1026.19 303.476 1025.17 301.811ZM1067.21 310.133C1066.18 309.301 1061.06 311.798 1063.11 312.63C1067.21 315.127 1068.23 310.966 1067.21 310.133ZM1178.98 289.328C1185.14 291.824 1187.19 289.328 1185.14 286.831C1184.11 285.167 1177.96 288.496 1178.98 289.328ZM1040.55 273.516C1042.6 271.851 1040.55 266.858 1037.47 269.354C1035.42 270.187 1037.47 275.18 1040.55 273.516ZM1114.38 273.516C1113.35 272.683 1112.33 274.348 1111.3 275.18C1110.28 276.012 1108.23 276.012 1108.23 277.677C1109.25 281.838 1117.46 276.012 1114.38 273.516ZM1115.41 285.167C1117.46 285.999 1121.56 283.502 1120.53 281.838C1119.51 276.844 1108.23 283.502 1115.41 285.167ZM1177.96 262.697C1176.93 261.032 1172.83 265.193 1173.86 266.858C1175.91 269.354 1180.01 263.529 1177.96 262.697ZM1035.42 285.999C1041.57 286.831 1048.75 287.663 1054.9 288.496C1055.93 288.496 1054.9 286.831 1053.88 286.831C1047.73 285.999 1041.57 285.167 1035.42 284.334C1033.37 283.502 1034.39 285.167 1035.42 285.999ZM1082.59 159.501C1088.74 161.998 1090.79 159.501 1088.74 157.004C1086.69 155.34 1080.54 158.669 1082.59 159.501ZM1138.99 268.522C1140.02 266.858 1141.04 266.026 1141.04 265.193C1144.12 268.522 1142.07 260.2 1140.02 260.2C1138.99 260.2 1138.99 261.864 1140.02 262.697C1134.89 263.529 1127.71 257.703 1123.61 260.2C1119.51 262.697 1124.63 267.69 1131.81 266.026C1134.89 265.193 1134.89 275.18 1126.69 276.012C1123.61 276.012 1124.63 280.173 1127.71 279.341C1131.81 278.509 1132.84 279.341 1132.84 282.67C1132.84 284.334 1134.89 285.167 1134.89 282.67C1135.91 275.18 1127.71 281.006 1138.99 268.522ZM1044.65 302.643C1045.67 300.979 1039.52 299.314 1038.5 300.979C1037.47 302.643 1043.62 304.308 1044.65 302.643ZM1047.73 291.824C1045.67 289.328 1038.5 292.657 1041.57 294.321C1046.7 296.818 1049.78 294.321 1047.73 291.824ZM1150.27 307.637C1148.22 305.972 1142.07 309.301 1144.12 310.133C1150.27 312.63 1152.32 310.133 1150.27 307.637ZM1151.3 256.039C1155.4 252.71 1151.3 253.542 1149.25 254.374C1148.22 256.039 1144.12 258.536 1146.17 260.2C1148.22 261.032 1149.25 257.703 1151.3 256.039ZM1169.75 256.039C1166.68 254.374 1165.65 255.207 1166.68 256.871C1167.7 258.536 1171.81 257.703 1169.75 256.039ZM1148.22 276.844C1147.19 276.012 1137.97 281.006 1141.04 282.67C1145.14 284.334 1151.3 278.509 1148.22 276.844ZM1083.62 292.657C1085.67 293.489 1087.72 295.153 1090.79 295.986C1091.82 296.818 1094.9 293.489 1092.85 292.657C1090.79 290.992 1081.57 290.992 1083.62 292.657ZM1171.81 271.019C1172.83 269.354 1168.73 269.354 1167.7 268.522C1163.6 266.858 1159.5 264.361 1154.37 267.69C1150.27 270.187 1150.27 262.697 1148.22 263.529C1146.17 264.361 1148.22 266.858 1149.25 268.522C1150.27 276.012 1158.47 263.529 1165.65 271.019C1164.63 271.851 1170.78 272.683 1171.81 271.019ZM779.058 123.716C777.007 122.051 773.931 127.877 773.931 127.877C774.956 128.709 780.084 124.548 779.058 123.716ZM936.977 124.548C935.952 123.716 930.825 125.38 930.825 127.044C930.825 128.709 939.028 125.38 936.977 124.548ZM883.654 129.541C882.628 126.212 875.45 129.541 878.527 130.373C891.857 132.87 870.323 138.696 882.628 142.024C886.73 143.689 884.679 138.696 883.654 129.541ZM930.825 107.071C931.85 105.407 928.774 102.91 927.748 104.574C927.748 107.071 929.799 107.903 930.825 107.071ZM924.672 132.038C922.621 132.87 924.672 137.863 926.723 137.031C927.748 136.199 926.723 131.206 924.672 132.038ZM1006.71 164.494C1008.76 163.662 1006.71 159.501 1004.66 160.333C1002.61 161.166 1005.68 165.327 1006.71 164.494ZM861.094 139.528C863.145 138.696 860.069 135.367 858.018 137.031C855.967 137.863 860.069 140.36 861.094 139.528ZM931.85 142.024C930.825 142.857 934.926 146.186 935.952 144.521C936.977 142.857 931.85 142.024 931.85 142.024ZM964.664 157.837C966.715 156.172 962.614 153.676 960.563 155.34C958.512 157.004 961.588 160.333 964.664 157.837ZM911.341 132.038C909.29 131.206 906.214 134.534 908.265 135.367C909.29 137.031 912.367 132.87 911.341 132.038ZM985.173 112.064C983.122 109.568 977.995 112.897 980.046 114.561C981.072 115.393 986.199 112.897 985.173 112.064ZM970.817 144.521C972.868 146.186 983.122 145.353 980.046 142.024C977.995 139.528 968.766 142.857 970.817 144.521ZM952.359 132.87C954.41 131.206 950.308 128.709 948.257 130.373C946.206 131.206 949.283 134.534 952.359 132.87ZM898.01 105.407C895.959 103.742 890.832 108.736 892.883 108.736C899.036 110.4 900.061 107.071 898.01 105.407ZM944.155 154.508C946.206 152.843 941.079 152.011 940.054 152.843C938.003 153.676 942.104 155.34 944.155 154.508ZM925.697 131.206C927.748 136.199 930.825 135.367 930.825 128.709C930.825 126.212 922.621 124.548 925.697 131.206ZM873.399 144.521C875.45 142.857 871.349 140.36 869.298 141.192C867.247 142.857 871.349 146.186 873.399 144.521ZM918.519 135.367C915.443 132.87 908.265 138.696 912.367 140.36C913.392 142.024 920.57 137.863 918.519 135.367ZM939.028 137.863C936.977 136.199 929.799 139.528 929.799 140.36C931.85 142.857 942.104 140.36 939.028 137.863ZM909.29 108.736C908.265 107.071 903.137 109.568 905.188 111.232C905.188 112.064 910.316 110.4 909.29 108.736ZM879.552 123.716C876.476 121.219 875.45 123.716 877.501 125.38C878.527 126.212 881.603 124.548 879.552 123.716ZM904.163 134.534C904.163 132.87 901.087 136.199 901.087 138.696C901.087 140.36 904.163 143.689 906.214 142.024C907.239 139.528 904.163 137.031 904.163 134.534ZM933.901 109.568C931.85 107.903 931.85 112.897 931.85 115.393C932.875 117.89 938.003 112.064 933.901 109.568ZM1020.04 127.877C1019.01 127.044 1015.94 129.541 1016.96 130.373C1017.99 132.038 1021.06 128.709 1020.04 127.877ZM1029.27 143.689C1027.22 154.508 1017.99 137.863 1014.91 147.85C1013.89 151.179 1020.04 149.514 1030.29 147.85C1034.39 147.018 1030.29 141.192 1029.27 143.689ZM1061.06 157.837C1063.11 156.172 1056.95 152.011 1056.95 153.676C1055.93 159.501 1060.03 160.333 1061.06 157.837ZM951.333 107.071C948.257 106.239 945.181 111.232 948.257 110.4C952.359 109.568 952.359 107.903 951.333 107.071ZM992.351 148.682C993.377 149.514 998.504 147.018 996.453 146.186C995.428 145.353 991.326 147.85 992.351 148.682ZM972.868 146.186C971.843 147.018 973.893 150.347 975.944 148.682C976.97 148.682 973.893 145.353 972.868 146.186ZM976.97 129.541C979.021 127.877 976.97 122.051 974.919 122.883C971.843 125.38 973.893 131.206 976.97 129.541ZM980.046 134.534C979.021 132.87 975.944 137.863 976.97 139.528C979.021 142.024 982.097 142.024 980.046 134.534ZM998.504 100.413C996.453 98.7489 992.351 102.91 992.351 103.742C993.377 104.574 999.53 101.246 998.504 100.413ZM958.512 136.199C961.588 132.038 955.435 120.387 955.435 129.541C955.435 133.702 955.435 140.36 958.512 136.199ZM1194.36 113.729C1193.34 111.232 1187.19 112.897 1189.24 115.393C1190.26 116.226 1195.39 115.393 1194.36 113.729ZM1205.64 163.662C1203.59 164.494 1205.64 168.656 1207.7 167.823C1208.72 166.991 1207.7 163.662 1205.64 163.662ZM1083.62 149.514C1085.67 148.682 1082.59 144.521 1081.57 146.186C1079.51 147.018 1082.59 150.347 1083.62 149.514ZM1184.11 142.857C1183.09 140.36 1172.83 142.024 1173.86 143.689C1175.91 146.186 1186.16 146.186 1184.11 142.857ZM1158.47 130.373C1161.55 128.709 1157.45 126.212 1155.4 127.044C1153.35 127.877 1155.4 132.038 1158.47 130.373ZM1166.68 156.172C1169.75 154.508 1165.65 152.011 1163.6 152.843C1160.53 154.508 1162.58 158.669 1166.68 156.172ZM1064.13 122.883C1062.08 123.716 1065.16 126.212 1066.18 126.212C1069.26 125.38 1066.18 122.051 1064.13 122.883ZM1056.95 157.837C1055.93 156.172 1047.73 156.172 1048.75 157.837C1050.8 161.166 1059.01 160.333 1056.95 157.837ZM1080.54 162.83C1079.51 161.998 1075.41 162.83 1076.44 164.494C1077.46 165.327 1081.57 164.494 1080.54 162.83ZM1029.27 139.528C1030.29 138.696 1028.24 133.702 1026.19 133.702C1024.14 134.534 1028.24 139.528 1029.27 139.528ZM1064.13 157.004C1062.08 157.004 1067.21 161.166 1069.26 160.333C1072.34 158.669 1073.36 156.172 1064.13 157.004ZM1099 160.333C1095.92 161.998 1101.05 166.991 1104.13 164.494C1107.2 163.662 1101.05 159.501 1099 160.333ZM1114.38 147.018C1115.41 143.689 1118.48 142.024 1117.46 141.192C1116.43 140.36 1113.35 142.857 1111.3 143.689C1092.85 149.514 1116.43 142.857 1111.3 151.179C1110.28 152.843 1113.35 153.676 1114.38 147.018ZM1117.46 124.548C1116.43 122.883 1112.33 126.212 1114.38 127.877C1115.41 129.541 1118.48 126.212 1117.46 124.548ZM1090.79 118.722C1090.79 115.393 1082.59 117.89 1085.67 118.722C1099 122.883 1076.44 126.212 1087.72 131.206C1091.82 133.702 1090.79 127.877 1090.79 118.722ZM1122.58 167.823C1121.56 168.656 1121.56 169.488 1124.63 170.32C1128.74 171.152 1125.66 166.991 1122.58 167.823ZM1132.84 131.206C1133.86 130.373 1133.86 126.212 1131.81 126.212C1129.76 126.212 1130.79 131.206 1132.84 131.206ZM1128.74 153.676C1128.74 154.508 1127.71 155.34 1127.71 157.004C1125.66 160.333 1127.71 160.333 1129.76 158.669C1136.94 151.179 1130.79 147.018 1128.74 153.676ZM1110.28 97.0844C1108.23 95.42 1102.07 98.7489 1104.13 99.5811C1110.28 102.078 1112.33 98.7489 1110.28 97.0844ZM1150.27 163.662C1149.25 164.494 1149.25 165.327 1152.32 166.159C1155.4 166.159 1153.35 161.998 1150.27 163.662ZM1145.14 119.554C1144.12 118.722 1138.99 119.554 1138.99 121.219C1137.97 123.716 1147.19 122.051 1145.14 119.554ZM1142.07 102.078C1144.12 101.246 1141.04 97.9166 1140.02 99.5811C1137.97 102.078 1140.02 102.91 1142.07 102.078ZM1135.91 137.031C1134.89 137.863 1137.97 141.192 1140.02 139.528C1141.04 138.696 1136.94 137.031 1135.91 137.031ZM1725.55 140.36C1724.52 137.863 1718.37 139.528 1720.42 142.024C1721.45 142.857 1726.57 142.024 1725.55 140.36ZM1623 275.18C1621.98 274.348 1616.85 276.844 1618.9 277.677C1623 280.173 1624.03 276.012 1623 275.18ZM1676.33 264.361C1678.38 263.529 1680.43 266.026 1682.48 266.858C1685.56 268.522 1687.61 266.858 1680.43 264.361C1669.15 259.368 1687.61 260.2 1677.35 257.703C1668.12 255.207 1672.22 277.677 1674.28 271.851C1675.3 270.187 1674.28 265.193 1676.33 264.361ZM1699.91 275.18C1706.06 277.677 1708.12 275.18 1706.06 272.683C1704.01 271.019 1697.86 274.348 1699.91 275.18ZM1580.96 267.69C1579.93 266.026 1575.83 268.522 1576.86 270.187C1577.88 271.851 1581.98 269.354 1580.96 267.69ZM1624.03 256.039C1627.1 255.207 1630.18 253.542 1633.26 253.542C1643.51 251.878 1632.23 248.549 1624.03 249.381C1620.95 249.381 1615.82 257.703 1624.03 256.039ZM1579.93 245.22C1581.98 245.22 1586.09 243.556 1585.06 241.891C1583.01 239.394 1578.91 241.059 1575.83 241.059C1573.78 241.059 1577.88 244.388 1579.93 245.22ZM1559.42 259.368C1560.45 258.536 1559.42 256.871 1558.4 257.703C1554.3 259.368 1557.37 261.032 1559.42 259.368ZM1590.19 251.046C1596.34 251.878 1603.52 252.71 1609.67 253.542C1610.7 253.542 1609.67 251.878 1608.65 251.878C1602.49 251.046 1596.34 250.213 1590.19 249.381C1588.14 249.381 1589.16 251.046 1590.19 251.046ZM1593.26 266.026C1592.24 267.69 1598.39 269.354 1599.42 267.69C1601.47 266.858 1594.29 264.361 1593.26 266.026ZM1629.16 292.657C1632.23 290.992 1629.16 287.663 1627.1 289.328C1625.05 290.16 1627.1 294.321 1629.16 292.657ZM1638.38 257.703C1640.44 258.536 1642.49 260.2 1645.56 261.032C1646.59 261.864 1649.66 258.536 1647.61 257.703C1646.59 256.039 1636.33 256.039 1638.38 257.703ZM1603.52 257.703C1601.47 255.207 1594.29 258.536 1597.37 260.2C1602.49 262.697 1605.57 259.368 1603.52 257.703ZM1715.29 169.488C1714.27 166.991 1704.01 168.656 1705.04 170.32C1707.09 172.817 1717.34 172.817 1715.29 169.488ZM1641.46 122.883C1639.41 121.219 1633.26 124.548 1635.31 125.38C1642.49 127.044 1643.51 124.548 1641.46 122.883ZM1671.2 292.657C1672.22 291.824 1670.17 286.831 1668.12 286.831C1666.07 287.663 1670.17 292.657 1671.2 292.657ZM1631.21 166.159C1631.21 159.501 1627.1 162.83 1627.1 166.991C1627.1 169.488 1627.1 171.152 1624.03 170.32C1617.88 168.656 1617.88 171.984 1619.93 173.649C1624.03 176.978 1634.28 181.139 1636.33 176.978C1638.38 171.984 1631.21 170.32 1631.21 166.159ZM1628.13 160.333C1630.18 157.004 1623 157.837 1612.75 158.669C1608.65 158.669 1612.75 165.327 1613.77 162.83C1616.85 152.843 1623 170.32 1628.13 160.333ZM1649.66 150.347C1648.64 148.682 1644.54 152.011 1645.56 153.676C1646.59 155.34 1650.69 151.179 1649.66 150.347ZM1653.77 159.501C1654.79 156.172 1657.87 154.508 1656.84 153.676C1655.82 152.843 1652.74 155.34 1650.69 155.34C1631.21 161.166 1655.82 154.508 1650.69 162.83C1649.66 165.327 1652.74 166.159 1653.77 159.501ZM1560.45 163.662C1561.48 162.83 1559.42 157.837 1557.37 157.837C1555.32 158.669 1559.42 163.662 1560.45 163.662ZM1595.32 147.85C1593.26 148.682 1596.34 151.179 1597.37 151.179C1600.44 150.347 1597.37 147.018 1595.32 147.85ZM1588.14 182.803C1587.11 181.139 1578.91 181.139 1579.93 182.803C1581.98 185.3 1589.16 184.468 1588.14 182.803ZM1611.72 171.152C1610.7 171.984 1612.75 175.313 1613.77 174.481C1615.82 173.649 1613.77 169.488 1611.72 171.152ZM1661.97 168.656C1658.89 170.32 1664.02 175.313 1667.1 172.817C1669.15 171.152 1664.02 166.991 1661.97 168.656ZM1667.1 162.83C1666.07 163.662 1669.15 166.991 1670.17 165.327C1672.22 164.494 1668.12 162.83 1667.1 162.83ZM1674.28 127.877C1676.33 127.044 1673.25 123.716 1672.22 125.38C1670.17 127.877 1672.22 128.709 1674.28 127.877ZM1675.3 246.884C1674.28 241.891 1663 248.549 1670.17 250.213C1672.22 251.046 1675.3 248.549 1675.3 246.884ZM1663 152.011C1660.94 152.843 1661.97 157.004 1664.02 157.004C1665.05 156.172 1665.05 152.011 1663 152.011ZM1676.33 146.186C1675.3 145.353 1670.17 146.186 1670.17 147.85C1669.15 149.514 1678.38 147.85 1676.33 146.186ZM1694.78 259.368C1693.76 261.864 1699.91 259.368 1701.96 258.536C1705.04 257.703 1695.81 255.207 1694.78 259.368ZM1757.34 287.663C1757.34 290.16 1764.51 287.663 1763.49 285.999C1763.49 284.334 1757.34 285.999 1757.34 287.663ZM1755.29 281.006C1761.44 281.006 1761.44 276.844 1758.36 276.012C1754.26 275.18 1751.18 281.006 1755.29 281.006ZM1746.06 299.314C1749.13 300.147 1750.16 295.986 1748.11 295.153C1746.06 294.321 1744.01 298.482 1746.06 299.314ZM1713.24 261.032C1717.34 257.703 1716.32 255.207 1708.11 258.536C1705.04 259.368 1706.06 266.026 1713.24 261.032ZM1715.29 248.549C1714.27 251.046 1720.42 255.207 1721.45 254.374C1723.5 251.878 1716.32 245.22 1715.29 248.549ZM1720.42 264.361C1718.37 267.69 1727.6 270.187 1728.62 267.69C1729.65 266.026 1722.47 261.864 1720.42 264.361ZM1759.39 269.354C1754.26 271.851 1748.11 273.516 1742.98 276.012C1740.93 276.844 1742.98 277.677 1744.01 277.677C1750.16 275.18 1755.29 272.683 1761.44 270.187C1762.46 269.354 1760.41 268.522 1759.39 269.354ZM1805.53 291.824C1806.56 289.328 1801.43 287.663 1801.43 290.16C1800.41 292.657 1804.51 294.321 1805.53 291.824ZM1721.45 297.65C1720.42 300.979 1723.5 300.979 1723.5 298.482C1724.52 297.65 1722.47 296.818 1721.45 297.65ZM1732.73 262.697C1731.7 265.193 1737.85 267.69 1738.88 265.193C1738.88 262.697 1733.75 260.2 1732.73 262.697ZM1724.52 276.012C1722.47 276.844 1728.62 277.677 1730.67 276.844C1732.73 276.012 1734.78 272.683 1732.73 271.851C1729.65 271.019 1727.6 274.348 1724.52 276.012ZM1820.91 161.166C1821.94 159.501 1817.84 157.004 1816.81 158.669C1815.79 160.333 1819.89 162.83 1820.91 161.166ZM1746.06 170.32C1746.06 168.656 1740.93 168.656 1740.93 169.488C1740.93 171.152 1746.06 171.984 1746.06 170.32ZM1729.65 162.83C1728.62 164.494 1732.73 167.823 1733.75 166.159C1734.78 165.327 1730.68 161.166 1729.65 162.83ZM1730.67 176.146C1730.67 174.481 1729.65 173.649 1728.62 172.817C1726.57 169.488 1728.62 166.991 1726.57 166.159C1724.52 166.159 1724.52 169.488 1722.47 171.152C1711.19 184.468 1725.55 168.656 1727.6 176.978C1728.62 178.642 1730.67 177.81 1730.67 176.146ZM1735.8 151.179C1734.78 151.179 1731.7 154.508 1731.7 155.34C1733.75 157.837 1738.88 152.011 1735.8 151.179ZM1721.45 137.863C1722.47 136.199 1717.34 135.367 1718.37 137.031C1718.37 139.528 1720.42 139.528 1721.45 137.863ZM1717.34 167.823C1715.29 166.991 1714.27 171.984 1716.32 171.984C1719.4 172.817 1719.39 167.823 1717.34 167.823ZM1693.76 281.838C1692.73 283.502 1696.84 285.999 1697.86 284.334C1698.89 283.502 1694.78 280.173 1693.76 281.838ZM1691.71 148.682C1688.63 147.85 1686.58 153.676 1688.63 153.676C1694.78 152.843 1694.78 149.514 1691.71 148.682ZM1785.02 151.179C1781.95 149.514 1775.79 156.172 1777.85 156.172C1779.9 157.837 1788.1 153.676 1785.02 151.179ZM1786.05 285.167C1791.18 285.167 1789.13 281.006 1787.07 281.006C1786.05 281.006 1782.97 285.167 1786.05 285.167ZM1772.72 124.548C1774.77 122.883 1769.64 121.219 1767.59 124.548C1767.59 125.38 1768.62 126.212 1768.62 126.212C1770.67 127.044 1771.69 125.38 1772.72 124.548ZM1787.07 259.368C1790.15 259.368 1792.2 259.368 1795.28 258.536C1796.3 258.536 1797.33 254.374 1794.25 254.374C1792.2 254.374 1785.02 259.368 1787.07 259.368ZM1681.45 251.878C1678.38 248.549 1676.33 249.381 1676.33 251.046C1675.3 253.542 1682.48 253.542 1681.45 251.878ZM1738.88 251.046C1736.83 251.046 1732.73 253.542 1733.75 253.542C1737.85 255.207 1739.9 254.374 1739.9 253.542C1742.98 258.536 1742.98 257.703 1747.08 252.71C1748.11 251.878 1739.9 246.052 1737.85 247.717C1738.88 248.549 1738.88 250.213 1738.88 251.046ZM1832.19 268.522C1831.17 270.187 1838.35 272.683 1838.35 271.851C1839.37 271.019 1833.22 266.858 1832.19 268.522ZM1841.42 163.662C1839.37 161.998 1835.27 163.662 1834.25 165.327C1833.22 167.823 1843.47 164.494 1841.42 163.662Z" fill="url(#paint0_linear_95_8)"></path><defs><linearGradient id="paint0_linear_95_8" x1="938" y1="0" x2="938" y2="410" gradientUnits="userSpaceOnUse"><stop stop-color="#FFA24C"></stop><stop offset="1" stop-color="#FF7B00"></stop></linearGradient></defs></svg>